<svg width="1440" height="720" viewBox="0 0 1440 720" fill="none" xmlns="http://www.w3.org/2000/svg">
<g clip-path="url(#clip0_232_205)">
<rect width="1440" height="720" fill="#080808"/>
<path d="M858 264C862.418 264 866 267.582 866 272L866 434C866 438.418 862.418 442 858 442L582 442C577.582 442 574 438.418 574 434L574 272C574 267.582 577.582 264 582 264L858 264Z" fill="white" fill-opacity="0.05"/>
<path d="M574 272L574.5 272C574.5 271.498 574.549 271.009 574.643 270.536L574.152 270.439L573.662 270.342C573.556 270.878 573.5 271.433 573.5 272L574 272ZM575.347 267.555L575.763 267.833C576.311 267.015 577.015 266.311 577.833 265.763L577.555 265.347L577.277 264.932C576.35 265.552 575.552 266.35 574.932 267.277L575.347 267.555ZM580.439 264.152L580.536 264.643C581.009 264.549 581.498 264.5 582 264.5L582 264L582 263.5C581.433 263.5 580.878 263.556 580.342 263.662L580.439 264.152ZM582 264L582 264.5L583.971 264.5L583.971 264L583.971 263.5L582 263.5L582 264ZM587.914 264L587.914 264.5L591.857 264.5L591.857 264L591.857 263.5L587.914 263.5L587.914 264ZM595.8 264L595.8 264.5L599.743 264.5L599.743 264L599.743 263.5L595.8 263.5L595.8 264ZM603.686 264L603.686 264.5L607.629 264.5L607.629 264L607.629 263.5L603.686 263.5L603.686 264ZM611.571 264L611.571 264.5L615.514 264.5L615.514 264L615.514 263.5L611.571 263.5L611.571 264ZM619.457 264L619.457 264.5L623.4 264.5L623.4 264L623.4 263.5L619.457 263.5L619.457 264ZM627.343 264L627.343 264.5L631.286 264.5L631.286 264L631.286 263.5L627.343 263.5L627.343 264ZM635.229 264L635.229 264.5L639.171 264.5L639.171 264L639.171 263.5L635.229 263.5L635.229 264ZM643.114 264L643.114 264.5L647.057 264.5L647.057 264L647.057 263.5L643.114 263.5L643.114 264ZM651 264L651 264.5L654.943 264.5L654.943 264L654.943 263.5L651 263.5L651 264ZM658.886 264L658.886 264.5L662.829 264.5L662.829 264L662.829 263.5L658.886 263.5L658.886 264ZM666.771 264L666.771 264.5L670.714 264.5L670.714 264L670.714 263.5L666.771 263.5L666.771 264ZM674.657 264L674.657 264.5L678.6 264.5L678.6 264L678.6 263.5L674.657 263.5L674.657 264ZM682.543 264L682.543 264.5L686.486 264.5L686.486 264L686.486 263.5L682.543 263.5L682.543 264ZM690.429 264L690.429 264.5L694.371 264.5L694.371 264L694.371 263.5L690.429 263.5L690.429 264ZM698.314 264L698.314 264.5L702.257 264.5L702.257 264L702.257 263.5L698.314 263.5L698.314 264ZM706.2 264L706.2 264.5L710.143 264.5L710.143 264L710.143 263.5L706.2 263.5L706.2 264ZM714.086 264L714.086 264.5L718.029 264.5L718.029 264L718.029 263.5L714.086 263.5L714.086 264ZM721.971 264L721.971 264.5L725.914 264.5L725.914 264L725.914 263.5L721.971 263.5L721.971 264ZM729.857 264L729.857 264.5L733.8 264.5L733.8 264L733.8 263.5L729.857 263.5L729.857 264ZM737.743 264L737.743 264.5L741.686 264.5L741.686 264L741.686 263.5L737.743 263.5L737.743 264ZM745.629 264L745.629 264.5L749.571 264.5L749.571 264L749.571 263.5L745.629 263.5L745.629 264ZM753.514 264L753.514 264.5L757.457 264.5L757.457 264L757.457 263.5L753.514 263.5L753.514 264ZM761.4 264L761.4 264.5L765.343 264.5L765.343 264L765.343 263.5L761.4 263.5L761.4 264ZM769.286 264L769.286 264.5L773.229 264.5L773.229 264L773.229 263.5L769.286 263.5L769.286 264ZM777.171 264L777.171 264.5L781.114 264.5L781.114 264L781.114 263.5L777.171 263.5L777.171 264ZM785.057 264L785.057 264.5L789 264.5L789 264L789 263.5L785.057 263.5L785.057 264ZM792.943 264L792.943 264.5L796.886 264.5L796.886 264L796.886 263.5L792.943 263.5L792.943 264ZM800.829 264L800.829 264.5L804.771 264.5L804.771 264L804.771 263.5L800.829 263.5L800.829 264ZM808.714 264L808.714 264.5L812.657 264.5L812.657 264L812.657 263.5L808.714 263.5L808.714 264ZM816.6 264L816.6 264.5L820.543 264.5L820.543 264L820.543 263.5L816.6 263.5L816.6 264ZM824.486 264L824.486 264.5L828.429 264.5L828.429 264L828.429 263.5L824.486 263.5L824.486 264ZM832.371 264L832.371 264.5L836.314 264.5L836.314 264L836.314 263.5L832.371 263.5L832.371 264ZM840.257 264L840.257 264.5L844.2 264.5L844.2 264L844.2 263.5L840.257 263.5L840.257 264ZM848.143 264L848.143 264.5L852.086 264.5L852.086 264L852.086 263.5L848.143 263.5L848.143 264ZM856.029 264L856.029 264.5L858 264.5L858 264L858 263.5L856.029 263.5L856.029 264ZM858 264L858 264.5C858.502 264.5 858.991 264.549 859.464 264.643L859.561 264.152L859.658 263.662C859.122 263.556 858.567 263.5 858 263.5L858 264ZM862.445 265.347L862.167 265.763C862.985 266.311 863.689 267.015 864.237 267.833L864.653 267.555L865.068 267.277C864.448 266.35 863.65 265.552 862.723 264.932L862.445 265.347ZM865.848 270.439L865.357 270.536C865.451 271.009 865.5 271.498 865.5 272L866 272L866.5 272C866.5 271.433 866.444 270.878 866.338 270.342L865.848 270.439ZM866 272L865.5 272L865.5 274.025L866 274.025L866.5 274.025L866.5 272L866 272ZM866 278.075L865.5 278.075L865.5 282.125L866 282.125L866.5 282.125L866.5 278.075L866 278.075ZM866 286.175L865.5 286.175L865.5 290.225L866 290.225L866.5 290.225L866.5 286.175L866 286.175ZM866 294.275L865.5 294.275L865.5 298.325L866 298.325L866.5 298.325L866.5 294.275L866 294.275ZM866 302.375L865.5 302.375L865.5 306.425L866 306.425L866.5 306.425L866.5 302.375L866 302.375ZM866 310.475L865.5 310.475L865.5 314.525L866 314.525L866.5 314.525L866.5 310.475L866 310.475ZM866 318.575L865.5 318.575L865.5 322.625L866 322.625L866.5 322.625L866.5 318.575L866 318.575ZM866 326.675L865.5 326.675L865.5 330.725L866 330.725L866.5 330.725L866.5 326.675L866 326.675ZM866 334.775L865.5 334.775L865.5 338.825L866 338.825L866.5 338.825L866.5 334.775L866 334.775ZM866 342.875L865.5 342.875L865.5 346.925L866 346.925L866.5 346.925L866.5 342.875L866 342.875ZM866 350.975L865.5 350.975L865.5 355.025L866 355.025L866.5 355.025L866.5 350.975L866 350.975ZM866 359.075L865.5 359.075L865.5 363.125L866 363.125L866.5 363.125L866.5 359.075L866 359.075ZM866 367.175L865.5 367.175L865.5 371.225L866 371.225L866.5 371.225L866.5 367.175L866 367.175ZM866 375.275L865.5 375.275L865.5 379.325L866 379.325L866.5 379.325L866.5 375.275L866 375.275ZM866 383.375L865.5 383.375L865.5 387.425L866 387.425L866.5 387.425L866.5 383.375L866 383.375ZM866 391.475L865.5 391.475L865.5 395.525L866 395.525L866.5 395.525L866.5 391.475L866 391.475ZM866 399.575L865.5 399.575L865.5 403.625L866 403.625L866.5 403.625L866.5 399.575L866 399.575ZM866 407.675L865.5 407.675L865.5 411.725L866 411.725L866.5 411.725L866.5 407.675L866 407.675ZM866 415.775L865.5 415.775L865.5 419.825L866 419.825L866.5 419.825L866.5 415.775L866 415.775ZM866 423.875L865.5 423.875L865.5 427.925L866 427.925L866.5 427.925L866.5 423.875L866 423.875ZM866 431.975L865.5 431.975L865.5 434L866 434L866.5 434L866.5 431.975L866 431.975ZM866 434L865.5 434C865.5 434.502 865.451 434.991 865.357 435.464L865.848 435.561L866.338 435.658C866.444 435.122 866.5 434.567 866.5 434L866 434ZM864.653 438.445L864.237 438.167C863.689 438.985 862.985 439.689 862.167 440.237L862.445 440.653L862.723 441.068C863.65 440.448 864.448 439.65 865.068 438.723L864.653 438.445ZM859.561 441.848L859.464 441.357C858.991 441.451 858.502 441.5 858 441.5L858 442L858 442.5C858.567 442.5 859.122 442.444 859.658 442.338L859.561 441.848ZM858 442L858 441.5L856.029 441.5L856.029 442L856.029 442.5L858 442.5L858 442ZM852.086 442L852.086 441.5L848.143 441.5L848.143 442L848.143 442.5L852.086 442.5L852.086 442ZM844.2 442L844.2 441.5L840.257 441.5L840.257 442L840.257 442.5L844.2 442.5L844.2 442ZM836.314 442L836.314 441.5L832.371 441.5L832.371 442L832.371 442.5L836.314 442.5L836.314 442ZM828.429 442L828.429 441.5L824.486 441.5L824.486 442L824.486 442.5L828.429 442.5L828.429 442ZM820.543 442L820.543 441.5L816.6 441.5L816.6 442L816.6 442.5L820.543 442.5L820.543 442ZM812.657 442L812.657 441.5L808.714 441.5L808.714 442L808.714 442.5L812.657 442.5L812.657 442ZM804.771 442L804.771 441.5L800.829 441.5L800.829 442L800.829 442.5L804.771 442.5L804.771 442ZM796.886 442L796.886 441.5L792.943 441.5L792.943 442L792.943 442.5L796.886 442.5L796.886 442ZM789 442L789 441.5L785.057 441.5L785.057 442L785.057 442.5L789 442.5L789 442ZM781.114 442L781.114 441.5L777.171 441.5L777.171 442L777.171 442.5L781.114 442.5L781.114 442ZM773.229 442L773.229 441.5L769.286 441.5L769.286 442L769.286 442.5L773.229 442.5L773.229 442ZM765.343 442L765.343 441.5L761.4 441.5L761.4 442L761.4 442.5L765.343 442.5L765.343 442ZM757.457 442L757.457 441.5L753.514 441.5L753.514 442L753.514 442.5L757.457 442.5L757.457 442ZM749.571 442L749.571 441.5L745.629 441.5L745.629 442L745.629 442.5L749.571 442.5L749.571 442ZM741.686 442L741.686 441.5L737.743 441.5L737.743 442L737.743 442.5L741.686 442.5L741.686 442ZM733.8 442L733.8 441.5L729.857 441.5L729.857 442L729.857 442.5L733.8 442.5L733.8 442ZM725.914 442L725.914 441.5L721.971 441.5L721.971 442L721.971 442.5L725.914 442.5L725.914 442ZM718.029 442L718.029 441.5L714.086 441.5L714.086 442L714.086 442.5L718.029 442.5L718.029 442ZM710.143 442L710.143 441.5L706.2 441.5L706.2 442L706.2 442.5L710.143 442.5L710.143 442ZM702.257 442L702.257 441.5L698.314 441.5L698.314 442L698.314 442.5L702.257 442.5L702.257 442ZM694.371 442L694.371 441.5L690.429 441.5L690.429 442L690.429 442.5L694.371 442.5L694.371 442ZM686.486 442L686.486 441.5L682.543 441.5L682.543 442L682.543 442.5L686.486 442.5L686.486 442ZM678.6 442L678.6 441.5L674.657 441.5L674.657 442L674.657 442.5L678.6 442.5L678.6 442ZM670.714 442L670.714 441.5L666.771 441.5L666.771 442L666.771 442.5L670.714 442.5L670.714 442ZM662.829 442L662.829 441.5L658.886 441.5L658.886 442L658.886 442.5L662.829 442.5L662.829 442ZM654.943 442L654.943 441.5L651 441.5L651 442L651 442.5L654.943 442.5L654.943 442ZM647.057 442L647.057 441.5L643.114 441.5L643.114 442L643.114 442.5L647.057 442.5L647.057 442ZM639.171 442L639.171 441.5L635.229 441.5L635.229 442L635.229 442.5L639.171 442.5L639.171 442ZM631.286 442L631.286 441.5L627.343 441.5L627.343 442L627.343 442.5L631.286 442.5L631.286 442ZM623.4 442L623.4 441.5L619.457 441.5L619.457 442L619.457 442.5L623.4 442.5L623.4 442ZM615.514 442L615.514 441.5L611.571 441.5L611.571 442L611.571 442.5L615.514 442.5L615.514 442ZM607.629 442L607.629 441.5L603.686 441.5L603.686 442L603.686 442.5L607.629 442.5L607.629 442ZM599.743 442L599.743 441.5L595.8 441.5L595.8 442L595.8 442.5L599.743 442.5L599.743 442ZM591.857 442L591.857 441.5L587.914 441.5L587.914 442L587.914 442.5L591.857 442.5L591.857 442ZM583.971 442L583.971 441.5L582 441.5L582 442L582 442.5L583.971 442.5L583.971 442ZM582 442L582 441.5C581.498 441.5 581.009 441.451 580.536 441.357L580.439 441.848L580.342 442.338C580.878 442.444 581.433 442.5 582 442.5L582 442ZM577.555 440.653L577.833 440.237C577.015 439.689 576.311 438.985 575.763 438.167L575.347 438.445L574.932 438.723C575.552 439.65 576.35 440.448 577.277 441.068L577.555 440.653ZM574.152 435.561L574.643 435.464C574.549 434.991 574.5 434.502 574.5 434L574 434L573.5 434C573.5 434.567 573.556 435.122 573.662 435.658L574.152 435.561ZM574 434L574.5 434L574.5 431.975L574 431.975L573.5 431.975L573.5 434L574 434ZM574 427.925L574.5 427.925L574.5 423.875L574 423.875L573.5 423.875L573.5 427.925L574 427.925ZM574 419.825L574.5 419.825L574.5 415.775L574 415.775L573.5 415.775L573.5 419.825L574 419.825ZM574 411.725L574.5 411.725L574.5 407.675L574 407.675L573.5 407.675L573.5 411.725L574 411.725ZM574 403.625L574.5 403.625L574.5 399.575L574 399.575L573.5 399.575L573.5 403.625L574 403.625ZM574 395.525L574.5 395.525L574.5 391.475L574 391.475L573.5 391.475L573.5 395.525L574 395.525ZM574 387.425L574.5 387.425L574.5 383.375L574 383.375L573.5 383.375L573.5 387.425L574 387.425ZM574 379.325L574.5 379.325L574.5 375.275L574 375.275L573.5 375.275L573.5 379.325L574 379.325ZM574 371.225L574.5 371.225L574.5 367.175L574 367.175L573.5 367.175L573.5 371.225L574 371.225ZM574 363.125L574.5 363.125L574.5 359.075L574 359.075L573.5 359.075L573.5 363.125L574 363.125ZM574 355.025L574.5 355.025L574.5 350.975L574 350.975L573.5 350.975L573.5 355.025L574 355.025ZM574 346.925L574.5 346.925L574.5 342.875L574 342.875L573.5 342.875L573.5 346.925L574 346.925ZM574 338.825L574.5 338.825L574.5 334.775L574 334.775L573.5 334.775L573.5 338.825L574 338.825ZM574 330.725L574.5 330.725L574.5 326.675L574 326.675L573.5 326.675L573.5 330.725L574 330.725ZM574 322.625L574.5 322.625L574.5 318.575L574 318.575L573.5 318.575L573.5 322.625L574 322.625ZM574 314.525L574.5 314.525L574.5 310.475L574 310.475L573.5 310.475L573.5 314.525L574 314.525ZM574 306.425L574.5 306.425L574.5 302.375L574 302.375L573.5 302.375L573.5 306.425L574 306.425ZM574 298.325L574.5 298.325L574.5 294.275L574 294.275L573.5 294.275L573.5 298.325L574 298.325ZM574 290.225L574.5 290.225L574.5 286.175L574 286.175L573.5 286.175L573.5 290.225L574 290.225ZM574 282.125L574.5 282.125L574.5 278.075L574 278.075L573.5 278.075L573.5 282.125L574 282.125ZM574 274.025L574.5 274.025L574.5 272L574 272L573.5 272L573.5 274.025L574 274.025Z" fill="white"/>
<path d="M858 264C862.418 264 866 267.582 866 272L866 371C866 375.418 862.418 379 858 379L582 379C577.582 379 574 375.418 574 371L574 272C574 267.582 577.582 264 582 264L858 264Z" fill="white" fill-opacity="0.05"/>
<path d="M574 272L574.5 272C574.5 271.498 574.549 271.009 574.643 270.536L574.152 270.439L573.662 270.342C573.556 270.878 573.5 271.433 573.5 272L574 272ZM575.347 267.555L575.763 267.833C576.311 267.015 577.015 266.311 577.833 265.763L577.555 265.347L577.277 264.932C576.35 265.552 575.552 266.35 574.932 267.277L575.347 267.555ZM580.439 264.152L580.536 264.643C581.009 264.549 581.498 264.5 582 264.5L582 264L582 263.5C581.433 263.5 580.878 263.556 580.342 263.662L580.439 264.152ZM582 264L582 264.5L583.971 264.5L583.971 264L583.971 263.5L582 263.5L582 264ZM587.914 264L587.914 264.5L591.857 264.5L591.857 264L591.857 263.5L587.914 263.5L587.914 264ZM595.8 264L595.8 264.5L599.743 264.5L599.743 264L599.743 263.5L595.8 263.5L595.8 264ZM603.686 264L603.686 264.5L607.629 264.5L607.629 264L607.629 263.5L603.686 263.5L603.686 264ZM611.571 264L611.571 264.5L615.514 264.5L615.514 264L615.514 263.5L611.571 263.5L611.571 264ZM619.457 264L619.457 264.5L623.4 264.5L623.4 264L623.4 263.5L619.457 263.5L619.457 264ZM627.343 264L627.343 264.5L631.286 264.5L631.286 264L631.286 263.5L627.343 263.5L627.343 264ZM635.229 264L635.229 264.5L639.171 264.5L639.171 264L639.171 263.5L635.229 263.5L635.229 264ZM643.114 264L643.114 264.5L647.057 264.5L647.057 264L647.057 263.5L643.114 263.5L643.114 264ZM651 264L651 264.5L654.943 264.5L654.943 264L654.943 263.5L651 263.5L651 264ZM658.886 264L658.886 264.5L662.829 264.5L662.829 264L662.829 263.5L658.886 263.5L658.886 264ZM666.771 264L666.771 264.5L670.714 264.5L670.714 264L670.714 263.5L666.771 263.5L666.771 264ZM674.657 264L674.657 264.5L678.6 264.5L678.6 264L678.6 263.5L674.657 263.5L674.657 264ZM682.543 264L682.543 264.5L686.486 264.5L686.486 264L686.486 263.5L682.543 263.5L682.543 264ZM690.429 264L690.429 264.5L694.371 264.5L694.371 264L694.371 263.5L690.429 263.5L690.429 264ZM698.314 264L698.314 264.5L702.257 264.5L702.257 264L702.257 263.5L698.314 263.5L698.314 264ZM706.2 264L706.2 264.5L710.143 264.5L710.143 264L710.143 263.5L706.2 263.5L706.2 264ZM714.086 264L714.086 264.5L718.029 264.5L718.029 264L718.029 263.5L714.086 263.5L714.086 264ZM721.971 264L721.971 264.5L725.914 264.5L725.914 264L725.914 263.5L721.971 263.5L721.971 264ZM729.857 264L729.857 264.5L733.8 264.5L733.8 264L733.8 263.5L729.857 263.5L729.857 264ZM737.743 264L737.743 264.5L741.686 264.5L741.686 264L741.686 263.5L737.743 263.5L737.743 264ZM745.629 264L745.629 264.5L749.571 264.5L749.571 264L749.571 263.5L745.629 263.5L745.629 264ZM753.514 264L753.514 264.5L757.457 264.5L757.457 264L757.457 263.5L753.514 263.5L753.514 264ZM761.4 264L761.4 264.5L765.343 264.5L765.343 264L765.343 263.5L761.4 263.5L761.4 264ZM769.286 264L769.286 264.5L773.229 264.5L773.229 264L773.229 263.5L769.286 263.5L769.286 264ZM777.171 264L777.171 264.5L781.114 264.5L781.114 264L781.114 263.5L777.171 263.5L777.171 264ZM785.057 264L785.057 264.5L789 264.5L789 264L789 263.5L785.057 263.5L785.057 264ZM792.943 264L792.943 264.5L796.886 264.5L796.886 264L796.886 263.5L792.943 263.5L792.943 264ZM800.829 264L800.829 264.5L804.771 264.5L804.771 264L804.771 263.5L800.829 263.5L800.829 264ZM808.714 264L808.714 264.5L812.657 264.5L812.657 264L812.657 263.5L808.714 263.5L808.714 264ZM816.6 264L816.6 264.5L820.543 264.5L820.543 264L820.543 263.5L816.6 263.5L816.6 264ZM824.486 264L824.486 264.5L828.429 264.5L828.429 264L828.429 263.5L824.486 263.5L824.486 264ZM832.371 264L832.371 264.5L836.314 264.5L836.314 264L836.314 263.5L832.371 263.5L832.371 264ZM840.257 264L840.257 264.5L844.2 264.5L844.2 264L844.2 263.5L840.257 263.5L840.257 264ZM848.143 264L848.143 264.5L852.086 264.5L852.086 264L852.086 263.5L848.143 263.5L848.143 264ZM856.029 264L856.029 264.5L858 264.5L858 264L858 263.5L856.029 263.5L856.029 264ZM858 264L858 264.5C858.502 264.5 858.991 264.549 859.464 264.643L859.561 264.152L859.658 263.662C859.122 263.556 858.567 263.5 858 263.5L858 264ZM862.445 265.347L862.167 265.763C862.985 266.311 863.689 267.015 864.237 267.833L864.653 267.555L865.068 267.277C864.448 266.35 863.65 265.552 862.723 264.932L862.445 265.347ZM865.848 270.439L865.357 270.536C865.451 271.009 865.5 271.498 865.5 272L866 272L866.5 272C866.5 271.433 866.444 270.878 866.338 270.342L865.848 270.439ZM866 272L865.5 272L865.5 274.062L866 274.062L866.5 274.063L866.5 272L866 272ZM866 278.188L865.5 278.188L865.5 282.313L866 282.313L866.5 282.313L866.5 278.188L866 278.188ZM866 286.438L865.5 286.438L865.5 290.562L866 290.562L866.5 290.563L866.5 286.438L866 286.438ZM866 294.688L865.5 294.688L865.5 298.812L866 298.812L866.5 298.813L866.5 294.688L866 294.688ZM866 302.938L865.5 302.937L865.5 307.063L866 307.063L866.5 307.063L866.5 302.938L866 302.938ZM866 311.188L865.5 311.188L865.5 315.313L866 315.313L866.5 315.313L866.5 311.188L866 311.188ZM866 319.438L865.5 319.437L865.5 323.563L866 323.563L866.5 323.563L866.5 319.438L866 319.438ZM866 327.688L865.5 327.687L865.5 331.812L866 331.812L866.5 331.813L866.5 327.688L866 327.688ZM866 335.938L865.5 335.937L865.5 340.063L866 340.063L866.5 340.063L866.5 335.938L866 335.938ZM866 344.188L865.5 344.188L865.5 348.313L866 348.313L866.5 348.313L866.5 344.188L866 344.188ZM866 352.438L865.5 352.437L865.5 356.563L866 356.563L866.5 356.563L866.5 352.438L866 352.438ZM866 360.688L865.5 360.687L865.5 364.813L866 364.813L866.5 364.813L866.5 360.688L866 360.688ZM866 368.938L865.5 368.937L865.5 371L866 371L866.5 371L866.5 368.938L866 368.938ZM866 371L865.5 371C865.5 371.502 865.451 371.991 865.357 372.464L865.848 372.561L866.338 372.658C866.444 372.122 866.5 371.567 866.5 371L866 371ZM864.653 375.445L864.237 375.167C863.689 375.985 862.985 376.689 862.167 377.237L862.445 377.653L862.723 378.068C863.65 377.448 864.448 376.65 865.068 375.723L864.653 375.445ZM859.561 378.848L859.464 378.357C858.991 378.451 858.502 378.5 858 378.5L858 379L858 379.5C858.567 379.5 859.122 379.444 859.658 379.338L859.561 378.848ZM858 379L858 378.5L856.029 378.5L856.029 379L856.029 379.5L858 379.5L858 379ZM852.086 379L852.086 378.5L848.143 378.5L848.143 379L848.143 379.5L852.086 379.5L852.086 379ZM844.2 379L844.2 378.5L840.257 378.5L840.257 379L840.257 379.5L844.2 379.5L844.2 379ZM836.314 379L836.314 378.5L832.371 378.5L832.371 379L832.371 379.5L836.314 379.5L836.314 379ZM828.429 379L828.429 378.5L824.486 378.5L824.486 379L824.486 379.5L828.429 379.5L828.429 379ZM820.543 379L820.543 378.5L816.6 378.5L816.6 379L816.6 379.5L820.543 379.5L820.543 379ZM812.657 379L812.657 378.5L808.714 378.5L808.714 379L808.714 379.5L812.657 379.5L812.657 379ZM804.771 379L804.771 378.5L800.829 378.5L800.829 379L800.829 379.5L804.771 379.5L804.771 379ZM796.886 379L796.886 378.5L792.943 378.5L792.943 379L792.943 379.5L796.886 379.5L796.886 379ZM789 379L789 378.5L785.057 378.5L785.057 379L785.057 379.5L789 379.5L789 379ZM781.114 379L781.114 378.5L777.171 378.5L777.171 379L777.171 379.5L781.114 379.5L781.114 379ZM773.229 379L773.229 378.5L769.286 378.5L769.286 379L769.286 379.5L773.229 379.5L773.229 379ZM765.343 379L765.343 378.5L761.4 378.5L761.4 379L761.4 379.5L765.343 379.5L765.343 379ZM757.457 379L757.457 378.5L753.514 378.5L753.514 379L753.514 379.5L757.457 379.5L757.457 379ZM749.571 379L749.571 378.5L745.629 378.5L745.629 379L745.629 379.5L749.571 379.5L749.571 379ZM741.686 379L741.686 378.5L737.743 378.5L737.743 379L737.743 379.5L741.686 379.5L741.686 379ZM733.8 379L733.8 378.5L729.857 378.5L729.857 379L729.857 379.5L733.8 379.5L733.8 379ZM725.914 379L725.914 378.5L721.971 378.5L721.971 379L721.971 379.5L725.914 379.5L725.914 379ZM718.029 379L718.029 378.5L714.086 378.5L714.086 379L714.086 379.5L718.029 379.5L718.029 379ZM710.143 379L710.143 378.5L706.2 378.5L706.2 379L706.2 379.5L710.143 379.5L710.143 379ZM702.257 379L702.257 378.5L698.314 378.5L698.314 379L698.314 379.5L702.257 379.5L702.257 379ZM694.371 379L694.371 378.5L690.429 378.5L690.429 379L690.429 379.5L694.371 379.5L694.371 379ZM686.486 379L686.486 378.5L682.543 378.5L682.543 379L682.543 379.5L686.486 379.5L686.486 379ZM678.6 379L678.6 378.5L674.657 378.5L674.657 379L674.657 379.5L678.6 379.5L678.6 379ZM670.714 379L670.714 378.5L666.771 378.5L666.771 379L666.771 379.5L670.714 379.5L670.714 379ZM662.829 379L662.829 378.5L658.886 378.5L658.886 379L658.886 379.5L662.829 379.5L662.829 379ZM654.943 379L654.943 378.5L651 378.5L651 379L651 379.5L654.943 379.5L654.943 379ZM647.057 379L647.057 378.5L643.114 378.5L643.114 379L643.114 379.5L647.057 379.5L647.057 379ZM639.171 379L639.171 378.5L635.229 378.5L635.229 379L635.229 379.5L639.171 379.5L639.171 379ZM631.286 379L631.286 378.5L627.343 378.5L627.343 379L627.343 379.5L631.286 379.5L631.286 379ZM623.4 379L623.4 378.5L619.457 378.5L619.457 379L619.457 379.5L623.4 379.5L623.4 379ZM615.514 379L615.514 378.5L611.571 378.5L611.571 379L611.571 379.5L615.514 379.5L615.514 379ZM607.629 379L607.629 378.5L603.686 378.5L603.686 379L603.686 379.5L607.629 379.5L607.629 379ZM599.743 379L599.743 378.5L595.8 378.5L595.8 379L595.8 379.5L599.743 379.5L599.743 379ZM591.857 379L591.857 378.5L587.914 378.5L587.914 379L587.914 379.5L591.857 379.5L591.857 379ZM583.971 379L583.971 378.5L582 378.5L582 379L582 379.5L583.971 379.5L583.971 379ZM582 379L582 378.5C581.498 378.5 581.009 378.451 580.536 378.357L580.439 378.848L580.342 379.338C580.878 379.444 581.433 379.5 582 379.5L582 379ZM577.555 377.653L577.833 377.237C577.015 376.689 576.311 375.985 575.763 375.167L575.347 375.445L574.932 375.723C575.552 376.65 576.35 377.448 577.277 378.068L577.555 377.653ZM574.152 372.561L574.643 372.464C574.549 371.991 574.5 371.502 574.5 371L574 371L573.5 371C573.5 371.567 573.556 372.122 573.662 372.658L574.152 372.561ZM574 371L574.5 371L574.5 368.938L574 368.938L573.5 368.938L573.5 371L574 371ZM574 364.813L574.5 364.813L574.5 360.688L574 360.688L573.5 360.688L573.5 364.813L574 364.813ZM574 356.563L574.5 356.563L574.5 352.438L574 352.438L573.5 352.438L573.5 356.563L574 356.563ZM574 348.313L574.5 348.313L574.5 344.188L574 344.188L573.5 344.188L573.5 348.313L574 348.313ZM574 340.063L574.5 340.063L574.5 335.938L574 335.938L573.5 335.938L573.5 340.063L574 340.063ZM574 331.813L574.5 331.813L574.5 327.687L574 327.687L573.5 327.687L573.5 331.813L574 331.813ZM574 323.563L574.5 323.563L574.5 319.437L574 319.437L573.5 319.437L573.5 323.563L574 323.563ZM574 315.313L574.5 315.313L574.5 311.187L574 311.187L573.5 311.187L573.5 315.313L574 315.313ZM574 307.063L574.5 307.063L574.5 302.937L574 302.937L573.5 302.937L573.5 307.063L574 307.063ZM574 298.812L574.5 298.812L574.5 294.687L574 294.687L573.5 294.687L573.5 298.812L574 298.812ZM574 290.562L574.5 290.562L574.5 286.437L574 286.437L573.5 286.437L573.5 290.562L574 290.562ZM574 282.313L574.5 282.313L574.5 278.187L574 278.187L573.5 278.187L573.5 282.313L574 282.313ZM574 274.063L574.5 274.063L574.5 272L574 272L573.5 272L573.5 274.063L574 274.063Z" fill="white"/>
<path d="M590 336C590 331.582 593.582 328 598 328H842C846.418 328 850 331.582 850 336V359C850 363.418 846.418 367 842 367H598C593.582 367 590 363.418 590 359V336Z" fill="white" fill-opacity="0.2"/>
<path d="M676.831 353.176C676.021 353.176 675.311 353.005 674.703 352.664C674.106 352.323 673.642 351.843 673.311 351.224C672.981 350.595 672.815 349.859 672.815 349.016V341.8H674.943V349.016C674.943 349.699 675.114 350.243 675.455 350.648C675.797 351.053 676.255 351.256 676.831 351.256C677.407 351.256 677.866 351.053 678.207 350.648C678.549 350.243 678.719 349.699 678.719 349.016V341.8H680.847V349.016C680.847 349.859 680.682 350.595 680.351 351.224C680.021 351.843 679.557 352.323 678.959 352.664C678.362 353.005 677.653 353.176 676.831 353.176ZM686.361 353.16C685.604 353.16 684.9 353.064 684.249 352.872C683.598 352.669 683.044 352.376 682.585 351.992L683.561 350.68C684.126 351.032 684.622 351.277 685.049 351.416C685.486 351.555 685.924 351.624 686.361 351.624C686.926 351.624 687.369 351.539 687.689 351.368C688.02 351.197 688.185 350.968 688.185 350.68C688.185 350.445 688.089 350.269 687.897 350.152C687.705 350.024 687.454 349.928 687.145 349.864C686.836 349.8 686.494 349.741 686.121 349.688C685.748 349.635 685.369 349.565 684.985 349.48C684.612 349.384 684.27 349.256 683.961 349.096C683.652 348.925 683.401 348.701 683.209 348.424C683.017 348.136 682.921 347.763 682.921 347.304C682.921 346.771 683.06 346.317 683.337 345.944C683.625 345.571 684.025 345.283 684.537 345.08C685.06 344.877 685.657 344.776 686.329 344.776C686.948 344.776 687.556 344.861 688.153 345.032C688.761 345.192 689.332 345.459 689.865 345.832L688.889 347.112C688.462 346.824 688.03 346.616 687.593 346.488C687.156 346.36 686.718 346.296 686.281 346.296C685.79 346.296 685.406 346.376 685.129 346.536C684.852 346.685 684.713 346.888 684.713 347.144C684.713 347.368 684.804 347.539 684.985 347.656C685.177 347.773 685.433 347.864 685.753 347.928C686.073 347.992 686.42 348.051 686.793 348.104C687.177 348.157 687.556 348.232 687.929 348.328C688.313 348.413 688.665 348.541 688.985 348.712C689.305 348.872 689.561 349.096 689.753 349.384C689.945 349.672 690.041 350.051 690.041 350.52C690.041 351.043 689.876 351.501 689.545 351.896C689.225 352.291 688.788 352.6 688.233 352.824C687.678 353.048 687.054 353.16 686.361 353.16ZM696.243 353.16C695.443 353.16 694.723 352.979 694.083 352.616C693.443 352.243 692.936 351.741 692.563 351.112C692.189 350.472 692.003 349.757 692.003 348.968C692.003 348.179 692.179 347.469 692.531 346.84C692.893 346.211 693.379 345.715 693.987 345.352C694.595 344.979 695.283 344.792 696.051 344.792C696.84 344.792 697.539 344.973 698.147 345.336C698.765 345.699 699.245 346.195 699.587 346.824C699.939 347.453 700.115 348.173 700.115 348.984V349.464H693.971C694.045 349.869 694.189 350.227 694.403 350.536C694.616 350.845 694.888 351.085 695.219 351.256C695.56 351.427 695.933 351.512 696.339 351.512C696.744 351.512 697.117 351.437 697.459 351.288C697.8 351.139 698.088 350.925 698.323 350.648L699.635 351.816C699.155 352.285 698.637 352.627 698.083 352.84C697.528 353.053 696.915 353.16 696.243 353.16ZM694.003 348.248H698.211C698.147 347.864 698.013 347.539 697.811 347.272C697.619 346.995 697.373 346.781 697.075 346.632C696.787 346.483 696.456 346.408 696.083 346.408C695.741 346.408 695.421 346.483 695.123 346.632C694.835 346.781 694.595 346.995 694.403 347.272C694.211 347.539 694.077 347.864 694.003 348.248ZM701.965 353V351.416H703.901V346.504H701.965V344.92H705.917V346.872C706.194 346.179 706.562 345.661 707.021 345.32C707.479 344.968 708.002 344.792 708.589 344.792C708.834 344.792 709.037 344.813 709.197 344.856C709.367 344.888 709.565 344.947 709.789 345.032V346.856C709.565 346.76 709.319 346.691 709.053 346.648C708.786 346.595 708.525 346.568 708.269 346.568C707.767 346.568 707.309 346.685 706.893 346.92C706.477 347.155 706.151 347.491 705.917 347.928V351.416H707.965V353H701.965ZM720.944 353V351.192H723.744V343.608H720.944V341.8H728.656V343.608H725.872V351.192H728.656V353H720.944ZM730.794 353V344.92H732.81V346.104C733.428 345.229 734.25 344.792 735.274 344.792C735.818 344.792 736.298 344.915 736.714 345.16C737.13 345.395 737.455 345.725 737.69 346.152C737.924 346.579 738.042 347.075 738.042 347.64V353H736.042V348.216C736.042 347.661 735.887 347.224 735.578 346.904C735.279 346.573 734.874 346.408 734.362 346.408C734.052 346.408 733.764 346.472 733.498 346.6C733.242 346.728 733.012 346.92 732.81 347.176V353H730.794ZM740.34 356.344V344.92H742.276V345.864C742.564 345.523 742.894 345.261 743.268 345.08C743.641 344.899 744.052 344.808 744.5 344.808C745.172 344.808 745.78 344.995 746.324 345.368C746.878 345.731 747.316 346.227 747.635 346.856C747.966 347.475 748.132 348.179 748.132 348.968C748.132 349.747 747.966 350.451 747.635 351.08C747.316 351.709 746.878 352.211 746.324 352.584C745.769 352.947 745.15 353.128 744.468 353.128C744.052 353.128 743.662 353.048 743.299 352.888C742.937 352.717 742.617 352.488 742.34 352.2V356.344H740.34ZM744.02 351.496C744.446 351.496 744.82 351.389 745.14 351.176C745.46 350.963 745.71 350.664 745.892 350.28C746.073 349.896 746.164 349.459 746.164 348.968C746.164 348.467 746.073 348.029 745.892 347.656C745.71 347.272 745.46 346.973 745.14 346.76C744.82 346.547 744.446 346.44 744.02 346.44C743.689 346.44 743.38 346.504 743.092 346.632C742.804 346.76 742.553 346.941 742.34 347.176V350.744C742.553 350.979 742.804 351.165 743.092 351.304C743.38 351.432 743.689 351.496 744.02 351.496ZM752.701 353.128C752.157 353.128 751.677 353.011 751.261 352.776C750.845 352.531 750.52 352.195 750.285 351.768C750.051 351.331 749.933 350.835 749.933 350.28V344.92H751.949V349.704C751.949 350.248 752.099 350.691 752.397 351.032C752.696 351.363 753.101 351.528 753.613 351.528C753.933 351.528 754.221 351.464 754.477 351.336C754.733 351.197 754.963 351 755.165 350.744V344.92H757.181V353H755.165V351.816C754.547 352.691 753.725 353.128 752.701 353.128ZM764.631 353.16C763.586 353.16 762.796 352.931 762.263 352.472C761.73 352.013 761.463 351.336 761.463 350.44V346.504H758.935V344.92H761.463V342.696L763.463 342.28V344.92H766.791V346.504H763.463V350.056C763.463 350.557 763.58 350.915 763.815 351.128C764.05 351.341 764.423 351.448 764.935 351.448C765.202 351.448 765.479 351.427 765.767 351.384C766.066 351.331 766.412 351.245 766.807 351.128V352.792C766.476 352.899 766.114 352.984 765.719 353.048C765.335 353.123 764.972 353.16 764.631 353.16Z" fill="white"/>
<path d="M590 399C590 394.582 593.582 391 598 391H842C846.418 391 850 394.582 850 399V422C850 426.418 846.418 430 842 430H598C593.582 430 590 426.418 590 422V399Z" fill="white" fill-opacity="0.2"/>
<path d="M670.978 416V406.608H667.57V404.8H676.498V406.608H673.106V416H670.978ZM681.628 416.16C680.86 416.16 680.167 415.979 679.548 415.616C678.929 415.243 678.439 414.741 678.076 414.112C677.713 413.472 677.532 412.757 677.532 411.968C677.532 411.189 677.713 410.485 678.076 409.856C678.439 409.216 678.929 408.715 679.548 408.352C680.167 407.979 680.86 407.792 681.628 407.792C682.407 407.792 683.1 407.979 683.708 408.352C684.327 408.715 684.817 409.216 685.18 409.856C685.543 410.485 685.724 411.189 685.724 411.968C685.724 412.757 685.543 413.472 685.18 414.112C684.817 414.741 684.327 415.243 683.708 415.616C683.1 415.979 682.407 416.16 681.628 416.16ZM681.628 414.448C682.044 414.448 682.412 414.341 682.732 414.128C683.052 413.915 683.303 413.621 683.484 413.248C683.665 412.875 683.756 412.453 683.756 411.984C683.756 411.504 683.665 411.083 683.484 410.72C683.303 410.347 683.052 410.053 682.732 409.84C682.412 409.627 682.044 409.52 681.628 409.52C681.212 409.52 680.844 409.627 680.524 409.84C680.204 410.053 679.953 410.347 679.772 410.72C679.591 411.083 679.5 411.504 679.5 411.984C679.5 412.453 679.591 412.875 679.772 413.248C679.953 413.621 680.204 413.915 680.524 414.128C680.844 414.341 681.212 414.448 681.628 414.448ZM691.222 416.16C690.454 416.16 689.761 415.979 689.142 415.616C688.523 415.243 688.033 414.741 687.67 414.112C687.307 413.472 687.126 412.757 687.126 411.968C687.126 411.189 687.307 410.485 687.67 409.856C688.033 409.216 688.523 408.715 689.142 408.352C689.761 407.979 690.454 407.792 691.222 407.792C692.001 407.792 692.694 407.979 693.302 408.352C693.921 408.715 694.411 409.216 694.774 409.856C695.137 410.485 695.318 411.189 695.318 411.968C695.318 412.757 695.137 413.472 694.774 414.112C694.411 414.741 693.921 415.243 693.302 415.616C692.694 415.979 692.001 416.16 691.222 416.16ZM691.222 414.448C691.638 414.448 692.006 414.341 692.326 414.128C692.646 413.915 692.897 413.621 693.078 413.248C693.259 412.875 693.35 412.453 693.35 411.984C693.35 411.504 693.259 411.083 693.078 410.72C692.897 410.347 692.646 410.053 692.326 409.84C692.006 409.627 691.638 409.52 691.222 409.52C690.806 409.52 690.438 409.627 690.118 409.84C689.798 410.053 689.547 410.347 689.366 410.72C689.185 411.083 689.094 411.504 689.094 411.984C689.094 412.453 689.185 412.875 689.366 413.248C689.547 413.621 689.798 413.915 690.118 414.128C690.438 414.341 690.806 414.448 691.222 414.448ZM702.72 416.16C701.706 416.16 700.938 415.92 700.416 415.44C699.893 414.96 699.632 414.251 699.632 413.312V405.952H696.768V404.368H701.648V413.104C701.648 413.573 701.76 413.915 701.984 414.128C702.208 414.341 702.56 414.448 703.04 414.448C703.296 414.448 703.546 414.427 703.792 414.384C704.037 414.331 704.309 414.24 704.608 414.112V415.792C704.384 415.888 704.096 415.973 703.744 416.048C703.392 416.123 703.05 416.16 702.72 416.16ZM716.403 416V404.8H720.339C721.086 404.8 721.742 404.944 722.307 405.232C722.883 405.52 723.331 405.92 723.651 406.432C723.971 406.944 724.131 407.541 724.131 408.224C724.131 408.949 723.939 409.579 723.555 410.112C723.182 410.645 722.675 411.04 722.035 411.296L724.451 416H722.179L720.019 411.632H718.547V416H716.403ZM718.547 409.92H720.147C720.702 409.92 721.144 409.771 721.475 409.472C721.806 409.163 721.971 408.757 721.971 408.256C721.971 407.744 721.806 407.339 721.475 407.04C721.144 406.741 720.702 406.592 720.147 406.592H718.547V409.92ZM729.821 416.16C729.021 416.16 728.301 415.979 727.661 415.616C727.021 415.243 726.514 414.741 726.141 414.112C725.768 413.472 725.581 412.757 725.581 411.968C725.581 411.179 725.757 410.469 726.109 409.84C726.472 409.211 726.957 408.715 727.565 408.352C728.173 407.979 728.861 407.792 729.629 407.792C730.418 407.792 731.117 407.973 731.725 408.336C732.344 408.699 732.824 409.195 733.165 409.824C733.517 410.453 733.693 411.173 733.693 411.984V412.464H727.549C727.624 412.869 727.768 413.227 727.981 413.536C728.194 413.845 728.466 414.085 728.797 414.256C729.138 414.427 729.512 414.512 729.917 414.512C730.322 414.512 730.696 414.437 731.037 414.288C731.378 414.139 731.666 413.925 731.901 413.648L733.213 414.816C732.733 415.285 732.216 415.627 731.661 415.84C731.106 416.053 730.493 416.16 729.821 416.16ZM727.581 411.248H731.789C731.725 410.864 731.592 410.539 731.389 410.272C731.197 409.995 730.952 409.781 730.653 409.632C730.365 409.483 730.034 409.408 729.661 409.408C729.32 409.408 729 409.483 728.701 409.632C728.413 409.781 728.173 409.995 727.981 410.272C727.789 410.539 727.656 410.864 727.581 411.248ZM739.127 416.16C738.369 416.16 737.665 416.064 737.015 415.872C736.364 415.669 735.809 415.376 735.351 414.992L736.327 413.68C736.892 414.032 737.388 414.277 737.815 414.416C738.252 414.555 738.689 414.624 739.127 414.624C739.692 414.624 740.135 414.539 740.455 414.368C740.785 414.197 740.951 413.968 740.951 413.68C740.951 413.445 740.855 413.269 740.663 413.152C740.471 413.024 740.22 412.928 739.911 412.864C739.601 412.8 739.26 412.741 738.887 412.688C738.513 412.635 738.135 412.565 737.751 412.48C737.377 412.384 737.036 412.256 736.727 412.096C736.417 411.925 736.167 411.701 735.975 411.424C735.783 411.136 735.687 410.763 735.687 410.304C735.687 409.771 735.825 409.317 736.103 408.944C736.391 408.571 736.791 408.283 737.303 408.08C737.825 407.877 738.423 407.776 739.095 407.776C739.713 407.776 740.321 407.861 740.919 408.032C741.527 408.192 742.097 408.459 742.631 408.832L741.655 410.112C741.228 409.824 740.796 409.616 740.359 409.488C739.921 409.36 739.484 409.296 739.047 409.296C738.556 409.296 738.172 409.376 737.895 409.536C737.617 409.685 737.479 409.888 737.479 410.144C737.479 410.368 737.569 410.539 737.751 410.656C737.943 410.773 738.199 410.864 738.519 410.928C738.839 410.992 739.185 411.051 739.559 411.104C739.943 411.157 740.321 411.232 740.695 411.328C741.079 411.413 741.431 411.541 741.751 411.712C742.071 411.872 742.327 412.096 742.519 412.384C742.711 412.672 742.807 413.051 742.807 413.52C742.807 414.043 742.641 414.501 742.311 414.896C741.991 415.291 741.553 415.6 740.999 415.824C740.444 416.048 739.82 416.16 739.127 416.16ZM747.904 416.128C747.36 416.128 746.88 416.011 746.464 415.776C746.048 415.531 745.723 415.195 745.488 414.768C745.254 414.331 745.136 413.835 745.136 413.28V407.92H747.152V412.704C747.152 413.248 747.302 413.691 747.6 414.032C747.899 414.363 748.304 414.528 748.816 414.528C749.136 414.528 749.424 414.464 749.68 414.336C749.936 414.197 750.166 414 750.368 413.744V407.92H752.384V416H750.368V414.816C749.75 415.691 748.928 416.128 747.904 416.128ZM760.282 416.16C759.269 416.16 758.501 415.92 757.978 415.44C757.455 414.96 757.194 414.251 757.194 413.312V405.952H754.33V404.368H759.21V413.104C759.21 413.573 759.322 413.915 759.546 414.128C759.77 414.341 760.122 414.448 760.602 414.448C760.858 414.448 761.109 414.427 761.354 414.384C761.599 414.331 761.871 414.24 762.17 414.112V415.792C761.946 415.888 761.658 415.973 761.306 416.048C760.954 416.123 760.613 416.16 760.282 416.16ZM769.428 416.16C768.383 416.16 767.593 415.931 767.06 415.472C766.527 415.013 766.26 414.336 766.26 413.44V409.504H763.732V407.92H766.26V405.696L768.26 405.28V407.92H771.588V409.504H768.26V413.056C768.26 413.557 768.377 413.915 768.612 414.128C768.847 414.341 769.22 414.448 769.732 414.448C769.999 414.448 770.276 414.427 770.564 414.384C770.863 414.331 771.209 414.245 771.604 414.128V415.792C771.273 415.899 770.911 415.984 770.516 416.048C770.132 416.123 769.769 416.16 769.428 416.16Z" fill="white"/>
<path d="M590 462C590 457.582 593.582 454 598 454H842C846.418 454 850 457.582 850 462V485C850 489.418 846.418 493 842 493H598C593.582 493 590 489.418 590 485V462Z" fill="white" fill-opacity="0.2"/>
<path d="M633.768 479L637.208 467.8H639.704L643.144 479H640.984L640.248 476.424H636.6L635.848 479H633.768ZM637.048 474.776H639.784L638.424 470.088L637.048 474.776ZM647.986 479.16C647.229 479.16 646.525 479.064 645.874 478.872C645.223 478.669 644.669 478.376 644.21 477.992L645.186 476.68C645.751 477.032 646.247 477.277 646.674 477.416C647.111 477.555 647.549 477.624 647.986 477.624C648.551 477.624 648.994 477.539 649.314 477.368C649.645 477.197 649.81 476.968 649.81 476.68C649.81 476.445 649.714 476.269 649.522 476.152C649.33 476.024 649.079 475.928 648.77 475.864C648.461 475.8 648.119 475.741 647.746 475.688C647.373 475.635 646.994 475.565 646.61 475.48C646.237 475.384 645.895 475.256 645.586 475.096C645.277 474.925 645.026 474.701 644.834 474.424C644.642 474.136 644.546 473.763 644.546 473.304C644.546 472.771 644.685 472.317 644.962 471.944C645.25 471.571 645.65 471.283 646.162 471.08C646.685 470.877 647.282 470.776 647.954 470.776C648.573 470.776 649.181 470.861 649.778 471.032C650.386 471.192 650.957 471.459 651.49 471.832L650.514 473.112C650.087 472.824 649.655 472.616 649.218 472.488C648.781 472.36 648.343 472.296 647.906 472.296C647.415 472.296 647.031 472.376 646.754 472.536C646.477 472.685 646.338 472.888 646.338 473.144C646.338 473.368 646.429 473.539 646.61 473.656C646.802 473.773 647.058 473.864 647.378 473.928C647.698 473.992 648.045 474.051 648.418 474.104C648.802 474.157 649.181 474.232 649.554 474.328C649.938 474.413 650.29 474.541 650.61 474.712C650.93 474.872 651.186 475.096 651.378 475.384C651.57 475.672 651.666 476.051 651.666 476.52C651.666 477.043 651.501 477.501 651.17 477.896C650.85 478.291 650.413 478.6 649.858 478.824C649.303 479.048 648.679 479.16 647.986 479.16ZM657.58 479.16C656.822 479.16 656.118 479.064 655.468 478.872C654.817 478.669 654.262 478.376 653.804 477.992L654.78 476.68C655.345 477.032 655.841 477.277 656.268 477.416C656.705 477.555 657.142 477.624 657.58 477.624C658.145 477.624 658.588 477.539 658.908 477.368C659.238 477.197 659.404 476.968 659.404 476.68C659.404 476.445 659.308 476.269 659.116 476.152C658.924 476.024 658.673 475.928 658.364 475.864C658.054 475.8 657.713 475.741 657.34 475.688C656.966 475.635 656.588 475.565 656.204 475.48C655.83 475.384 655.489 475.256 655.18 475.096C654.87 474.925 654.62 474.701 654.428 474.424C654.236 474.136 654.14 473.763 654.14 473.304C654.14 472.771 654.278 472.317 654.556 471.944C654.844 471.571 655.244 471.283 655.756 471.08C656.278 470.877 656.876 470.776 657.548 470.776C658.166 470.776 658.774 470.861 659.372 471.032C659.98 471.192 660.55 471.459 661.084 471.832L660.108 473.112C659.681 472.824 659.249 472.616 658.812 472.488C658.374 472.36 657.937 472.296 657.5 472.296C657.009 472.296 656.625 472.376 656.348 472.536C656.07 472.685 655.932 472.888 655.932 473.144C655.932 473.368 656.022 473.539 656.204 473.656C656.396 473.773 656.652 473.864 656.972 473.928C657.292 473.992 657.638 474.051 658.012 474.104C658.396 474.157 658.774 474.232 659.148 474.328C659.532 474.413 659.884 474.541 660.204 474.712C660.524 474.872 660.78 475.096 660.972 475.384C661.164 475.672 661.26 476.051 661.26 476.52C661.26 477.043 661.094 477.501 660.764 477.896C660.444 478.291 660.006 478.6 659.452 478.824C658.897 479.048 658.273 479.16 657.58 479.16ZM667.206 469.432C666.822 469.432 666.496 469.299 666.23 469.032C665.963 468.755 665.83 468.429 665.83 468.056C665.83 467.683 665.963 467.363 666.23 467.096C666.496 466.819 666.822 466.68 667.206 466.68C667.579 466.68 667.899 466.819 668.166 467.096C668.443 467.363 668.582 467.683 668.582 468.056C668.582 468.429 668.443 468.755 668.166 469.032C667.899 469.299 667.579 469.432 667.206 469.432ZM669.286 479.16C668.272 479.16 667.504 478.92 666.982 478.44C666.459 477.96 666.198 477.251 666.198 476.312V472.504H663.318V470.92H668.198V476.104C668.198 476.573 668.31 476.915 668.534 477.128C668.768 477.341 669.126 477.448 669.606 477.448C669.862 477.448 670.112 477.427 670.358 477.384C670.603 477.331 670.875 477.24 671.174 477.112V478.792C670.95 478.888 670.662 478.973 670.31 479.048C669.958 479.123 669.616 479.16 669.286 479.16ZM676.767 479.16C676.01 479.16 675.306 479.064 674.655 478.872C674.005 478.669 673.45 478.376 672.991 477.992L673.967 476.68C674.533 477.032 675.029 477.277 675.455 477.416C675.893 477.555 676.33 477.624 676.767 477.624C677.333 477.624 677.775 477.539 678.095 477.368C678.426 477.197 678.591 476.968 678.591 476.68C678.591 476.445 678.495 476.269 678.303 476.152C678.111 476.024 677.861 475.928 677.551 475.864C677.242 475.8 676.901 475.741 676.527 475.688C676.154 475.635 675.775 475.565 675.391 475.48C675.018 475.384 674.677 475.256 674.367 475.096C674.058 474.925 673.807 474.701 673.615 474.424C673.423 474.136 673.327 473.763 673.327 473.304C673.327 472.771 673.466 472.317 673.743 471.944C674.031 471.571 674.431 471.283 674.943 471.08C675.466 470.877 676.063 470.776 676.735 470.776C677.354 470.776 677.962 470.861 678.559 471.032C679.167 471.192 679.738 471.459 680.271 471.832L679.295 473.112C678.869 472.824 678.437 472.616 677.999 472.488C677.562 472.36 677.125 472.296 676.687 472.296C676.197 472.296 675.813 472.376 675.535 472.536C675.258 472.685 675.119 472.888 675.119 473.144C675.119 473.368 675.21 473.539 675.391 473.656C675.583 473.773 675.839 473.864 676.159 473.928C676.479 473.992 676.826 474.051 677.199 474.104C677.583 474.157 677.962 474.232 678.335 474.328C678.719 474.413 679.071 474.541 679.391 474.712C679.711 474.872 679.967 475.096 680.159 475.384C680.351 475.672 680.447 476.051 680.447 476.52C680.447 477.043 680.282 477.501 679.951 477.896C679.631 478.291 679.194 478.6 678.639 478.824C678.085 479.048 677.461 479.16 676.767 479.16ZM687.881 479.16C686.836 479.16 686.046 478.931 685.513 478.472C684.98 478.013 684.713 477.336 684.713 476.44V472.504H682.185V470.92H684.713V468.696L686.713 468.28V470.92H690.041V472.504H686.713V476.056C686.713 476.557 686.83 476.915 687.065 477.128C687.3 477.341 687.673 477.448 688.185 477.448C688.452 477.448 688.729 477.427 689.017 477.384C689.316 477.331 689.662 477.245 690.057 477.128V478.792C689.726 478.899 689.364 478.984 688.969 479.048C688.585 479.123 688.222 479.16 687.881 479.16ZM695.027 479.144C694.461 479.144 693.96 479.043 693.523 478.84C693.085 478.627 692.744 478.339 692.499 477.976C692.264 477.603 692.147 477.176 692.147 476.696C692.147 476.195 692.275 475.768 692.531 475.416C692.787 475.064 693.149 474.792 693.619 474.6C694.088 474.408 694.643 474.312 695.283 474.312C695.645 474.312 696.003 474.349 696.355 474.424C696.707 474.499 697.064 474.627 697.427 474.808V474.024C697.427 473.501 697.272 473.112 696.963 472.856C696.664 472.589 696.211 472.456 695.603 472.456C695.251 472.456 694.883 472.509 694.499 472.616C694.115 472.723 693.683 472.893 693.203 473.128L692.451 471.672C693.091 471.363 693.699 471.139 694.275 471C694.861 470.861 695.437 470.792 696.003 470.792C697.08 470.792 697.917 471.059 698.515 471.592C699.112 472.115 699.411 472.861 699.411 473.832V479H697.427V478.168C697.064 478.509 696.685 478.76 696.291 478.92C695.907 479.069 695.485 479.144 695.027 479.144ZM694.019 476.648C694.019 476.989 694.157 477.261 694.435 477.464C694.723 477.667 695.107 477.768 695.587 477.768C695.939 477.768 696.264 477.715 696.563 477.608C696.872 477.501 697.16 477.336 697.427 477.112V475.928C697.149 475.8 696.861 475.709 696.563 475.656C696.275 475.603 695.971 475.576 695.651 475.576C695.149 475.576 694.749 475.672 694.451 475.864C694.163 476.056 694.019 476.317 694.019 476.648ZM702.013 479V470.92H704.029V472.104C704.647 471.229 705.469 470.792 706.493 470.792C707.037 470.792 707.517 470.915 707.933 471.16C708.349 471.395 708.674 471.725 708.909 472.152C709.143 472.579 709.26 473.075 709.26 473.64V479H707.261V474.216C707.261 473.661 707.106 473.224 706.797 472.904C706.498 472.573 706.093 472.408 705.581 472.408C705.271 472.408 704.983 472.472 704.717 472.6C704.461 472.728 704.231 472.92 704.029 473.176V479H702.013ZM716.662 479.16C715.617 479.16 714.828 478.931 714.294 478.472C713.761 478.013 713.494 477.336 713.494 476.44V472.504H710.966V470.92H713.494V468.696L715.494 468.28V470.92H718.822V472.504H715.494V476.056C715.494 476.557 715.612 476.915 715.846 477.128C716.081 477.341 716.454 477.448 716.966 477.448C717.233 477.448 717.51 477.427 717.798 477.384C718.097 477.331 718.444 477.245 718.838 477.128V478.792C718.508 478.899 718.145 478.984 717.75 479.048C717.366 479.123 717.004 479.16 716.662 479.16ZM730.794 479V467.8H734.73C735.476 467.8 736.132 467.944 736.698 468.232C737.274 468.52 737.722 468.92 738.042 469.432C738.362 469.944 738.522 470.541 738.522 471.224C738.522 471.949 738.33 472.579 737.946 473.112C737.572 473.645 737.066 474.04 736.426 474.296L738.842 479H736.57L734.41 474.632H732.938V479H730.794ZM732.938 472.92H734.538C735.092 472.92 735.535 472.771 735.866 472.472C736.196 472.163 736.362 471.757 736.362 471.256C736.362 470.744 736.196 470.339 735.866 470.04C735.535 469.741 735.092 469.592 734.538 469.592H732.938V472.92ZM744.212 479.16C743.412 479.16 742.692 478.979 742.052 478.616C741.412 478.243 740.905 477.741 740.532 477.112C740.158 476.472 739.972 475.757 739.972 474.968C739.972 474.179 740.148 473.469 740.5 472.84C740.862 472.211 741.348 471.715 741.956 471.352C742.564 470.979 743.252 470.792 744.02 470.792C744.809 470.792 745.508 470.973 746.116 471.336C746.734 471.699 747.214 472.195 747.556 472.824C747.908 473.453 748.084 474.173 748.084 474.984V475.464H741.94C742.014 475.869 742.158 476.227 742.372 476.536C742.585 476.845 742.857 477.085 743.188 477.256C743.529 477.427 743.902 477.512 744.308 477.512C744.713 477.512 745.086 477.437 745.428 477.288C745.769 477.139 746.057 476.925 746.292 476.648L747.604 477.816C747.124 478.285 746.606 478.627 746.052 478.84C745.497 479.053 744.884 479.16 744.212 479.16ZM741.972 474.248H746.18C746.116 473.864 745.982 473.539 745.78 473.272C745.588 472.995 745.342 472.781 745.044 472.632C744.756 472.483 744.425 472.408 744.052 472.408C743.71 472.408 743.39 472.483 743.092 472.632C742.804 472.781 742.564 472.995 742.372 473.272C742.18 473.539 742.046 473.864 741.972 474.248ZM753.517 479.16C752.76 479.16 752.056 479.064 751.405 478.872C750.755 478.669 750.2 478.376 749.741 477.992L750.717 476.68C751.283 477.032 751.779 477.277 752.205 477.416C752.643 477.555 753.08 477.624 753.517 477.624C754.083 477.624 754.525 477.539 754.845 477.368C755.176 477.197 755.341 476.968 755.341 476.68C755.341 476.445 755.245 476.269 755.053 476.152C754.861 476.024 754.611 475.928 754.301 475.864C753.992 475.8 753.651 475.741 753.277 475.688C752.904 475.635 752.525 475.565 752.141 475.48C751.768 475.384 751.427 475.256 751.117 475.096C750.808 474.925 750.557 474.701 750.365 474.424C750.173 474.136 750.077 473.763 750.077 473.304C750.077 472.771 750.216 472.317 750.493 471.944C750.781 471.571 751.181 471.283 751.693 471.08C752.216 470.877 752.813 470.776 753.485 470.776C754.104 470.776 754.712 470.861 755.309 471.032C755.917 471.192 756.488 471.459 757.021 471.832L756.045 473.112C755.619 472.824 755.187 472.616 754.749 472.488C754.312 472.36 753.875 472.296 753.437 472.296C752.947 472.296 752.563 472.376 752.285 472.536C752.008 472.685 751.869 472.888 751.869 473.144C751.869 473.368 751.96 473.539 752.141 473.656C752.333 473.773 752.589 473.864 752.909 473.928C753.229 473.992 753.576 474.051 753.949 474.104C754.333 474.157 754.712 474.232 755.085 474.328C755.469 474.413 755.821 474.541 756.141 474.712C756.461 474.872 756.717 475.096 756.909 475.384C757.101 475.672 757.197 476.051 757.197 476.52C757.197 477.043 757.032 477.501 756.701 477.896C756.381 478.291 755.944 478.6 755.389 478.824C754.835 479.048 754.211 479.16 753.517 479.16ZM759.527 482.344V470.92H761.463V471.864C761.751 471.523 762.082 471.261 762.455 471.08C762.828 470.899 763.239 470.808 763.687 470.808C764.359 470.808 764.967 470.995 765.511 471.368C766.066 471.731 766.503 472.227 766.823 472.856C767.154 473.475 767.319 474.179 767.319 474.968C767.319 475.747 767.154 476.451 766.823 477.08C766.503 477.709 766.066 478.211 765.511 478.584C764.956 478.947 764.338 479.128 763.655 479.128C763.239 479.128 762.85 479.048 762.487 478.888C762.124 478.717 761.804 478.488 761.527 478.2V482.344H759.527ZM763.207 477.496C763.634 477.496 764.007 477.389 764.327 477.176C764.647 476.963 764.898 476.664 765.079 476.28C765.26 475.896 765.351 475.459 765.351 474.968C765.351 474.467 765.26 474.029 765.079 473.656C764.898 473.272 764.647 472.973 764.327 472.76C764.007 472.547 763.634 472.44 763.207 472.44C762.876 472.44 762.567 472.504 762.279 472.632C761.991 472.76 761.74 472.941 761.527 473.176V476.744C761.74 476.979 761.991 477.165 762.279 477.304C762.567 477.432 762.876 477.496 763.207 477.496ZM772.769 479.16C772.001 479.16 771.307 478.979 770.689 478.616C770.07 478.243 769.579 477.741 769.217 477.112C768.854 476.472 768.673 475.757 768.673 474.968C768.673 474.189 768.854 473.485 769.217 472.856C769.579 472.216 770.07 471.715 770.689 471.352C771.307 470.979 772.001 470.792 772.769 470.792C773.547 470.792 774.241 470.979 774.849 471.352C775.467 471.715 775.958 472.216 776.321 472.856C776.683 473.485 776.865 474.189 776.865 474.968C776.865 475.757 776.683 476.472 776.321 477.112C775.958 477.741 775.467 478.243 774.849 478.616C774.241 478.979 773.547 479.16 772.769 479.16ZM772.769 477.448C773.185 477.448 773.553 477.341 773.873 477.128C774.193 476.915 774.443 476.621 774.625 476.248C774.806 475.875 774.897 475.453 774.897 474.984C774.897 474.504 774.806 474.083 774.625 473.72C774.443 473.347 774.193 473.053 773.873 472.84C773.553 472.627 773.185 472.52 772.769 472.52C772.353 472.52 771.985 472.627 771.665 472.84C771.345 473.053 771.094 473.347 770.913 473.72C770.731 474.083 770.641 474.504 770.641 474.984C770.641 475.453 770.731 475.875 770.913 476.248C771.094 476.621 771.345 476.915 771.665 477.128C771.985 477.341 772.353 477.448 772.769 477.448ZM778.763 479V470.92H780.779V472.104C781.397 471.229 782.219 470.792 783.243 470.792C783.787 470.792 784.267 470.915 784.683 471.16C785.099 471.395 785.424 471.725 785.659 472.152C785.893 472.579 786.01 473.075 786.01 473.64V479H784.011V474.216C784.011 473.661 783.856 473.224 783.547 472.904C783.248 472.573 782.843 472.408 782.331 472.408C782.021 472.408 781.733 472.472 781.467 472.6C781.211 472.728 780.981 472.92 780.779 473.176V479H778.763ZM791.892 479.16C791.135 479.16 790.431 479.064 789.78 478.872C789.13 478.669 788.575 478.376 788.116 477.992L789.092 476.68C789.658 477.032 790.154 477.277 790.58 477.416C791.018 477.555 791.455 477.624 791.892 477.624C792.458 477.624 792.9 477.539 793.22 477.368C793.551 477.197 793.716 476.968 793.716 476.68C793.716 476.445 793.62 476.269 793.428 476.152C793.236 476.024 792.986 475.928 792.676 475.864C792.367 475.8 792.026 475.741 791.652 475.688C791.279 475.635 790.9 475.565 790.516 475.48C790.143 475.384 789.802 475.256 789.492 475.096C789.183 474.925 788.932 474.701 788.74 474.424C788.548 474.136 788.452 473.763 788.452 473.304C788.452 472.771 788.591 472.317 788.868 471.944C789.156 471.571 789.556 471.283 790.068 471.08C790.591 470.877 791.188 470.776 791.86 470.776C792.479 470.776 793.087 470.861 793.684 471.032C794.292 471.192 794.863 471.459 795.396 471.832L794.42 473.112C793.994 472.824 793.562 472.616 793.124 472.488C792.687 472.36 792.25 472.296 791.812 472.296C791.322 472.296 790.938 472.376 790.66 472.536C790.383 472.685 790.244 472.888 790.244 473.144C790.244 473.368 790.335 473.539 790.516 473.656C790.708 473.773 790.964 473.864 791.284 473.928C791.604 473.992 791.951 474.051 792.324 474.104C792.708 474.157 793.087 474.232 793.46 474.328C793.844 474.413 794.196 474.541 794.516 474.712C794.836 474.872 795.092 475.096 795.284 475.384C795.476 475.672 795.572 476.051 795.572 476.52C795.572 477.043 795.407 477.501 795.076 477.896C794.756 478.291 794.319 478.6 793.764 478.824C793.21 479.048 792.586 479.16 791.892 479.16ZM801.774 479.16C800.974 479.16 800.254 478.979 799.614 478.616C798.974 478.243 798.467 477.741 798.094 477.112C797.721 476.472 797.534 475.757 797.534 474.968C797.534 474.179 797.71 473.469 798.062 472.84C798.425 472.211 798.91 471.715 799.518 471.352C800.126 470.979 800.814 470.792 801.582 470.792C802.371 470.792 803.07 470.973 803.678 471.336C804.297 471.699 804.777 472.195 805.118 472.824C805.47 473.453 805.646 474.173 805.646 474.984V475.464H799.502C799.577 475.869 799.721 476.227 799.934 476.536C800.147 476.845 800.419 477.085 800.75 477.256C801.091 477.427 801.465 477.512 801.87 477.512C802.275 477.512 802.649 477.437 802.99 477.288C803.331 477.139 803.619 476.925 803.854 476.648L805.166 477.816C804.686 478.285 804.169 478.627 803.614 478.84C803.059 479.053 802.446 479.16 801.774 479.16ZM799.534 474.248H803.742C803.678 473.864 803.545 473.539 803.342 473.272C803.15 472.995 802.905 472.781 802.606 472.632C802.318 472.483 801.987 472.408 801.614 472.408C801.273 472.408 800.953 472.483 800.654 472.632C800.366 472.781 800.126 472.995 799.934 473.272C799.742 473.539 799.609 473.864 799.534 474.248Z" fill="white"/>
<path d="M590 285C590 280.582 593.582 277 598 277H842C846.418 277 850 280.582 850 285V308C850 312.418 846.418 316 842 316H598C593.582 316 590 312.418 590 308V285Z" fill="white" fill-opacity="0.2"/>
<path d="M628.927 302.176C628.116 302.176 627.353 302.043 626.639 301.776C625.924 301.509 625.215 301.104 624.511 300.56L625.615 298.96C626.308 299.483 626.911 299.856 627.423 300.08C627.935 300.304 628.452 300.416 628.975 300.416C629.391 300.416 629.748 300.352 630.047 300.224C630.345 300.085 630.58 299.899 630.751 299.664C630.921 299.429 631.007 299.163 631.007 298.864C631.007 298.491 630.895 298.197 630.671 297.984C630.447 297.771 630.148 297.605 629.775 297.488C629.412 297.36 629.007 297.253 628.559 297.168C628.121 297.072 627.679 296.965 627.231 296.848C626.793 296.72 626.388 296.544 626.015 296.32C625.652 296.096 625.359 295.797 625.135 295.424C624.911 295.04 624.799 294.549 624.799 293.952C624.799 293.269 624.959 292.683 625.279 292.192C625.599 291.701 626.057 291.317 626.655 291.04C627.252 290.763 627.961 290.624 628.783 290.624C629.54 290.624 630.271 290.741 630.975 290.976C631.689 291.211 632.351 291.557 632.959 292.016L631.871 293.6C631.337 293.195 630.809 292.891 630.287 292.688C629.764 292.485 629.236 292.384 628.703 292.384C628.127 292.384 627.668 292.512 627.327 292.768C626.985 293.024 626.815 293.355 626.815 293.76C626.815 294.123 626.927 294.405 627.151 294.608C627.385 294.811 627.689 294.976 628.062 295.104C628.436 295.221 628.847 295.328 629.295 295.424C629.743 295.509 630.191 295.621 630.639 295.76C631.087 295.888 631.497 296.064 631.871 296.288C632.244 296.512 632.543 296.816 632.767 297.2C632.991 297.584 633.102 298.08 633.102 298.688C633.102 299.371 632.927 299.979 632.575 300.512C632.233 301.035 631.748 301.445 631.119 301.744C630.5 302.032 629.769 302.176 628.927 302.176ZM635.736 305.504C635.534 305.504 635.31 305.488 635.064 305.456C634.83 305.435 634.595 305.397 634.36 305.344V303.6C634.595 303.643 634.787 303.675 634.936 303.696C635.096 303.717 635.283 303.728 635.496 303.728C635.859 303.728 636.158 303.659 636.392 303.52C636.627 303.392 636.803 303.179 636.92 302.88L637.24 302.16L634.12 293.92H636.328L638.376 299.776L640.584 293.92H642.744L638.872 303.28C638.648 303.813 638.398 304.245 638.12 304.576C637.843 304.907 637.512 305.141 637.128 305.28C636.744 305.429 636.28 305.504 635.736 305.504ZM647.986 302.16C647.229 302.16 646.525 302.064 645.874 301.872C645.223 301.669 644.669 301.376 644.21 300.992L645.186 299.68C645.751 300.032 646.247 300.277 646.674 300.416C647.111 300.555 647.549 300.624 647.986 300.624C648.551 300.624 648.994 300.539 649.314 300.368C649.645 300.197 649.81 299.968 649.81 299.68C649.81 299.445 649.714 299.269 649.522 299.152C649.33 299.024 649.079 298.928 648.77 298.864C648.461 298.8 648.119 298.741 647.746 298.688C647.373 298.635 646.994 298.565 646.61 298.48C646.237 298.384 645.895 298.256 645.586 298.096C645.277 297.925 645.026 297.701 644.834 297.424C644.642 297.136 644.546 296.763 644.546 296.304C644.546 295.771 644.685 295.317 644.962 294.944C645.25 294.571 645.65 294.283 646.162 294.08C646.685 293.877 647.282 293.776 647.954 293.776C648.573 293.776 649.181 293.861 649.778 294.032C650.386 294.192 650.957 294.459 651.49 294.832L650.514 296.112C650.087 295.824 649.655 295.616 649.218 295.488C648.781 295.36 648.343 295.296 647.906 295.296C647.415 295.296 647.031 295.376 646.754 295.536C646.477 295.685 646.338 295.888 646.338 296.144C646.338 296.368 646.429 296.539 646.61 296.656C646.802 296.773 647.058 296.864 647.378 296.928C647.698 296.992 648.045 297.051 648.418 297.104C648.802 297.157 649.181 297.232 649.554 297.328C649.938 297.413 650.29 297.541 650.61 297.712C650.93 297.872 651.186 298.096 651.378 298.384C651.57 298.672 651.666 299.051 651.666 299.52C651.666 300.043 651.501 300.501 651.17 300.896C650.85 301.291 650.413 301.6 649.858 301.824C649.303 302.048 648.679 302.16 647.986 302.16ZM659.1 302.16C658.054 302.16 657.265 301.931 656.732 301.472C656.198 301.013 655.932 300.336 655.932 299.44V295.504H653.404V293.92H655.932V291.696L657.932 291.28V293.92H661.26V295.504H657.932V299.056C657.932 299.557 658.049 299.915 658.284 300.128C658.518 300.341 658.892 300.448 659.404 300.448C659.67 300.448 659.948 300.427 660.236 300.384C660.534 300.331 660.881 300.245 661.276 300.128V301.792C660.945 301.899 660.582 301.984 660.188 302.048C659.804 302.123 659.441 302.16 659.1 302.16ZM667.462 302.16C666.662 302.16 665.942 301.979 665.302 301.616C664.662 301.243 664.155 300.741 663.782 300.112C663.408 299.472 663.222 298.757 663.222 297.968C663.222 297.179 663.398 296.469 663.75 295.84C664.112 295.211 664.598 294.715 665.206 294.352C665.814 293.979 666.502 293.792 667.27 293.792C668.059 293.792 668.758 293.973 669.366 294.336C669.984 294.699 670.464 295.195 670.806 295.824C671.158 296.453 671.334 297.173 671.334 297.984V298.464H665.19C665.264 298.869 665.408 299.227 665.622 299.536C665.835 299.845 666.107 300.085 666.438 300.256C666.779 300.427 667.152 300.512 667.558 300.512C667.963 300.512 668.336 300.437 668.678 300.288C669.019 300.139 669.307 299.925 669.542 299.648L670.854 300.816C670.374 301.285 669.856 301.627 669.302 301.84C668.747 302.053 668.134 302.16 667.462 302.16ZM665.222 297.248H669.43C669.366 296.864 669.232 296.539 669.03 296.272C668.838 295.995 668.592 295.781 668.294 295.632C668.006 295.483 667.675 295.408 667.302 295.408C666.96 295.408 666.64 295.483 666.342 295.632C666.054 295.781 665.814 295.995 665.622 296.272C665.43 296.539 665.296 296.864 665.222 297.248ZM672.767 302V293.92H674.463V294.608C674.655 294.341 674.863 294.144 675.087 294.016C675.322 293.877 675.583 293.808 675.871 293.808C676.213 293.808 676.517 293.893 676.783 294.064C677.061 294.224 677.274 294.459 677.423 294.768C677.637 294.448 677.882 294.208 678.159 294.048C678.447 293.888 678.767 293.808 679.119 293.808C679.653 293.808 680.085 294 680.415 294.384C680.746 294.768 680.911 295.269 680.911 295.888V302H679.231V296.416C679.231 296.064 679.157 295.787 679.007 295.584C678.858 295.381 678.645 295.28 678.367 295.28C678.239 295.28 678.117 295.307 677.999 295.36C677.893 295.403 677.786 295.493 677.679 295.632C677.69 295.685 677.695 295.744 677.695 295.808C677.695 295.861 677.695 295.92 677.695 295.984V302H676.015V296.416C676.015 296.064 675.941 295.787 675.791 295.584C675.642 295.381 675.423 295.28 675.135 295.28C675.018 295.28 674.901 295.301 674.783 295.344C674.677 295.387 674.57 295.472 674.463 295.6V302H672.767ZM692.371 302V290.8H696.403C697.171 290.8 697.837 290.949 698.403 291.248C698.979 291.547 699.421 291.963 699.731 292.496C700.04 293.029 700.195 293.643 700.195 294.336C700.195 295.008 700.04 295.611 699.731 296.144C699.421 296.667 698.979 297.077 698.403 297.376C697.837 297.675 697.171 297.824 696.403 297.824H694.515V302H692.371ZM694.515 296.08H696.067C696.707 296.08 697.197 295.92 697.539 295.6C697.88 295.269 698.051 294.848 698.051 294.336C698.051 293.813 697.88 293.392 697.539 293.072C697.197 292.752 696.707 292.592 696.067 292.592H694.515V296.08ZM701.965 302V300.416H703.901V295.504H701.965V293.92H705.917V295.872C706.194 295.179 706.562 294.661 707.021 294.32C707.479 293.968 708.002 293.792 708.589 293.792C708.834 293.792 709.037 293.813 709.197 293.856C709.367 293.888 709.565 293.947 709.789 294.032V295.856C709.565 295.76 709.319 295.691 709.053 295.648C708.786 295.595 708.525 295.568 708.269 295.568C707.767 295.568 707.309 295.685 706.893 295.92C706.477 296.155 706.151 296.491 705.917 296.928V300.416H707.965V302H701.965ZM715.206 302.16C714.438 302.16 713.745 301.979 713.126 301.616C712.508 301.243 712.017 300.741 711.654 300.112C711.292 299.472 711.11 298.757 711.11 297.968C711.11 297.189 711.292 296.485 711.654 295.856C712.017 295.216 712.508 294.715 713.126 294.352C713.745 293.979 714.438 293.792 715.206 293.792C715.985 293.792 716.678 293.979 717.286 294.352C717.905 294.715 718.396 295.216 718.758 295.856C719.121 296.485 719.302 297.189 719.302 297.968C719.302 298.757 719.121 299.472 718.758 300.112C718.396 300.741 717.905 301.243 717.286 301.616C716.678 301.979 715.985 302.16 715.206 302.16ZM715.206 300.448C715.622 300.448 715.99 300.341 716.31 300.128C716.63 299.915 716.881 299.621 717.062 299.248C717.244 298.875 717.334 298.453 717.334 297.984C717.334 297.504 717.244 297.083 717.062 296.72C716.881 296.347 716.63 296.053 716.31 295.84C715.99 295.627 715.622 295.52 715.206 295.52C714.79 295.52 714.422 295.627 714.102 295.84C713.782 296.053 713.532 296.347 713.35 296.72C713.169 297.083 713.078 297.504 713.078 297.984C713.078 298.453 713.169 298.875 713.35 299.248C713.532 299.621 713.782 299.915 714.102 300.128C714.422 300.341 714.79 300.448 715.206 300.448ZM720.736 302V293.92H722.432V294.608C722.624 294.341 722.832 294.144 723.056 294.016C723.291 293.877 723.552 293.808 723.84 293.808C724.181 293.808 724.485 293.893 724.752 294.064C725.029 294.224 725.243 294.459 725.392 294.768C725.605 294.448 725.851 294.208 726.128 294.048C726.416 293.888 726.736 293.808 727.088 293.808C727.621 293.808 728.053 294 728.384 294.384C728.715 294.768 728.88 295.269 728.88 295.888V302H727.2V296.416C727.2 296.064 727.125 295.787 726.976 295.584C726.827 295.381 726.613 295.28 726.336 295.28C726.208 295.28 726.085 295.307 725.968 295.36C725.861 295.403 725.755 295.493 725.648 295.632C725.659 295.685 725.664 295.744 725.664 295.808C725.664 295.861 725.664 295.92 725.664 295.984V302H723.984V296.416C723.984 296.064 723.909 295.787 723.76 295.584C723.611 295.381 723.392 295.28 723.104 295.28C722.987 295.28 722.869 295.301 722.752 295.344C722.645 295.387 722.539 295.472 722.432 295.6V302H720.736ZM730.746 305.344V293.92H732.682V294.864C732.97 294.523 733.3 294.261 733.674 294.08C734.047 293.899 734.458 293.808 734.906 293.808C735.578 293.808 736.186 293.995 736.73 294.368C737.284 294.731 737.722 295.227 738.042 295.856C738.372 296.475 738.538 297.179 738.538 297.968C738.538 298.747 738.372 299.451 738.042 300.08C737.722 300.709 737.284 301.211 736.73 301.584C736.175 301.947 735.556 302.128 734.874 302.128C734.458 302.128 734.068 302.048 733.706 301.888C733.343 301.717 733.023 301.488 732.746 301.2V305.344H730.746ZM734.426 300.496C734.852 300.496 735.226 300.389 735.546 300.176C735.866 299.963 736.116 299.664 736.298 299.28C736.479 298.896 736.57 298.459 736.57 297.968C736.57 297.467 736.479 297.029 736.298 296.656C736.116 296.272 735.866 295.973 735.546 295.76C735.226 295.547 734.852 295.44 734.426 295.44C734.095 295.44 733.786 295.504 733.498 295.632C733.21 295.76 732.959 295.941 732.746 296.176V299.744C732.959 299.979 733.21 300.165 733.498 300.304C733.786 300.432 734.095 300.496 734.426 300.496ZM745.444 302.16C744.398 302.16 743.609 301.931 743.076 301.472C742.542 301.013 742.276 300.336 742.276 299.44V295.504H739.748V293.92H742.276V291.696L744.276 291.28V293.92H747.604V295.504H744.276V299.056C744.276 299.557 744.393 299.915 744.628 300.128C744.862 300.341 745.236 300.448 745.748 300.448C746.014 300.448 746.292 300.427 746.58 300.384C746.878 300.331 747.225 300.245 747.62 300.128V301.792C747.289 301.899 746.926 301.984 746.532 302.048C746.148 302.123 745.785 302.16 745.444 302.16ZM762.279 302.176C761.586 302.176 760.978 302.048 760.455 301.792C759.932 301.525 759.522 301.157 759.223 300.688C758.935 300.208 758.791 299.648 758.791 299.008C758.791 298.4 758.935 297.856 759.223 297.376C759.522 296.885 759.98 296.421 760.599 295.984C760.279 295.515 760.044 295.077 759.895 294.672C759.746 294.256 759.671 293.835 759.671 293.408C759.671 292.875 759.794 292.4 760.039 291.984C760.295 291.568 760.647 291.237 761.095 290.992C761.543 290.747 762.044 290.624 762.599 290.624C763.132 290.624 763.607 290.736 764.023 290.96C764.439 291.173 764.764 291.467 764.999 291.84C765.244 292.203 765.367 292.629 765.367 293.12C765.367 293.504 765.287 293.867 765.127 294.208C764.978 294.549 764.727 294.885 764.375 295.216C764.023 295.547 763.559 295.893 762.983 296.256C763.282 296.587 763.607 296.939 763.959 297.312C764.322 297.685 764.695 298.064 765.079 298.448C765.218 298.139 765.346 297.797 765.463 297.424C765.58 297.051 765.682 296.651 765.767 296.224L767.415 296.496C767.287 297.104 767.127 297.669 766.935 298.192C766.754 298.704 766.546 299.173 766.311 299.6C766.674 299.909 766.983 300.176 767.239 300.4C767.495 300.613 767.735 300.805 767.959 300.976L766.775 302.272C766.519 302.059 766.263 301.851 766.007 301.648C765.751 301.435 765.49 301.211 765.223 300.976C764.818 301.371 764.364 301.669 763.863 301.872C763.372 302.075 762.844 302.176 762.279 302.176ZM761.383 293.376C761.383 293.643 761.436 293.915 761.543 294.192C761.66 294.459 761.831 294.763 762.055 295.104C762.45 294.869 762.764 294.651 762.999 294.448C763.234 294.235 763.399 294.027 763.495 293.824C763.602 293.621 763.655 293.403 763.655 293.168C763.655 292.848 763.548 292.581 763.335 292.368C763.122 292.155 762.86 292.048 762.551 292.048C762.21 292.048 761.927 292.171 761.703 292.416C761.49 292.651 761.383 292.971 761.383 293.376ZM760.551 298.896C760.551 299.44 760.716 299.872 761.047 300.192C761.378 300.512 761.826 300.672 762.391 300.672C762.7 300.672 762.999 300.608 763.287 300.48C763.575 300.341 763.836 300.144 764.071 299.888C763.623 299.451 763.186 299.008 762.759 298.56C762.343 298.101 761.938 297.648 761.543 297.2C761.202 297.467 760.951 297.739 760.791 298.016C760.631 298.293 760.551 298.587 760.551 298.896ZM781.307 302V292.608H777.899V290.8H786.827V292.608H783.435V302H781.307ZM791.956 302.16C791.188 302.16 790.495 301.979 789.876 301.616C789.258 301.243 788.767 300.741 788.404 300.112C788.042 299.472 787.86 298.757 787.86 297.968C787.86 297.189 788.042 296.485 788.404 295.856C788.767 295.216 789.258 294.715 789.876 294.352C790.495 293.979 791.188 293.792 791.956 293.792C792.735 293.792 793.428 293.979 794.036 294.352C794.655 294.715 795.146 295.216 795.508 295.856C795.871 296.485 796.052 297.189 796.052 297.968C796.052 298.757 795.871 299.472 795.508 300.112C795.146 300.741 794.655 301.243 794.036 301.616C793.428 301.979 792.735 302.16 791.956 302.16ZM791.956 300.448C792.372 300.448 792.74 300.341 793.06 300.128C793.38 299.915 793.631 299.621 793.812 299.248C793.994 298.875 794.084 298.453 794.084 297.984C794.084 297.504 793.994 297.083 793.812 296.72C793.631 296.347 793.38 296.053 793.06 295.84C792.74 295.627 792.372 295.52 791.956 295.52C791.54 295.52 791.172 295.627 790.852 295.84C790.532 296.053 790.282 296.347 790.1 296.72C789.919 297.083 789.828 297.504 789.828 297.984C789.828 298.453 789.919 298.875 790.1 299.248C790.282 299.621 790.532 299.915 790.852 300.128C791.172 300.341 791.54 300.448 791.956 300.448ZM801.55 302.16C800.782 302.16 800.089 301.979 799.47 301.616C798.851 301.243 798.361 300.741 797.998 300.112C797.635 299.472 797.454 298.757 797.454 297.968C797.454 297.189 797.635 296.485 797.998 295.856C798.361 295.216 798.851 294.715 799.47 294.352C800.089 293.979 800.782 293.792 801.55 293.792C802.329 293.792 803.022 293.979 803.63 294.352C804.249 294.715 804.739 295.216 805.102 295.856C805.465 296.485 805.646 297.189 805.646 297.968C805.646 298.757 805.465 299.472 805.102 300.112C804.739 300.741 804.249 301.243 803.63 301.616C803.022 301.979 802.329 302.16 801.55 302.16ZM801.55 300.448C801.966 300.448 802.334 300.341 802.654 300.128C802.974 299.915 803.225 299.621 803.406 299.248C803.587 298.875 803.678 298.453 803.678 297.984C803.678 297.504 803.587 297.083 803.406 296.72C803.225 296.347 802.974 296.053 802.654 295.84C802.334 295.627 801.966 295.52 801.55 295.52C801.134 295.52 800.766 295.627 800.446 295.84C800.126 296.053 799.875 296.347 799.694 296.72C799.513 297.083 799.422 297.504 799.422 297.984C799.422 298.453 799.513 298.875 799.694 299.248C799.875 299.621 800.126 299.915 800.446 300.128C800.766 300.341 801.134 300.448 801.55 300.448ZM813.048 302.16C812.034 302.16 811.266 301.92 810.744 301.44C810.221 300.96 809.96 300.251 809.96 299.312V291.952H807.096V290.368H811.976V299.104C811.976 299.573 812.088 299.915 812.312 300.128C812.536 300.341 812.888 300.448 813.368 300.448C813.624 300.448 813.874 300.427 814.12 300.384C814.365 300.331 814.637 300.24 814.936 300.112V301.792C814.712 301.888 814.424 301.973 814.072 302.048C813.72 302.123 813.378 302.16 813.048 302.16Z" fill="white"/>
<path d="M922 336C922 331.582 925.582 328 930 328H1174C1178.42 328 1182 331.582 1182 336V359C1182 363.418 1178.42 367 1174 367H930C925.582 367 922 363.418 922 359V336Z" fill="white"/>
<path d="M1038.99 353V341.8H1041.13V351.192H1046.46V353H1038.99ZM1048.58 353V341.8H1050.72V351.192H1056.05V353H1048.58ZM1057.56 353V341.8H1059.9L1061.61 346.024L1063.29 341.8H1065.63V353H1063.79V344.728L1061.58 350.024L1059.37 344.728V353H1057.56Z" fill="#080808"/>
<path d="M922 399C922 394.582 925.582 391 930 391H1174C1178.42 391 1182 394.582 1182 399V422C1182 426.418 1178.42 430 1174 430H930C925.582 430 922 426.418 922 422V399Z" fill="white"/>
<path d="M1038.99 416V404.8H1041.13V414.192H1046.46V416H1038.99ZM1048.58 416V404.8H1050.72V414.192H1056.05V416H1048.58ZM1057.56 416V404.8H1059.9L1061.61 409.024L1063.29 404.8H1065.63V416H1063.79V407.728L1061.58 413.024L1059.37 407.728V416H1057.56Z" fill="#080808"/>
<path d="M922 259C922 254.582 925.582 251 930 251H1174C1178.42 251 1182 254.582 1182 259V282C1182 286.418 1178.42 290 1174 290H930C925.582 290 922 286.418 922 282V259Z" fill="#E66A32"/>
<path d="M971.605 276V264.8H975.637C976.405 264.8 977.072 264.949 977.637 265.248C978.213 265.547 978.656 265.963 978.965 266.496C979.274 267.029 979.429 267.643 979.429 268.336C979.429 269.008 979.274 269.611 978.965 270.144C978.656 270.667 978.213 271.077 977.637 271.376C977.072 271.675 976.405 271.824 975.637 271.824H973.749V276H971.605ZM973.749 270.08H975.301C975.941 270.08 976.432 269.92 976.773 269.6C977.114 269.269 977.285 268.848 977.285 268.336C977.285 267.813 977.114 267.392 976.773 267.072C976.432 266.752 975.941 266.592 975.301 266.592H973.749V270.08ZM984.847 276.16C984.079 276.16 983.386 275.979 982.767 275.616C982.148 275.243 981.658 274.741 981.295 274.112C980.932 273.472 980.751 272.757 980.751 271.968C980.751 271.189 980.932 270.485 981.295 269.856C981.658 269.216 982.148 268.715 982.767 268.352C983.386 267.979 984.079 267.792 984.847 267.792C985.626 267.792 986.319 267.979 986.927 268.352C987.546 268.715 988.036 269.216 988.399 269.856C988.762 270.485 988.943 271.189 988.943 271.968C988.943 272.757 988.762 273.472 988.399 274.112C988.036 274.741 987.546 275.243 986.927 275.616C986.319 275.979 985.626 276.16 984.847 276.16ZM984.847 274.448C985.263 274.448 985.631 274.341 985.951 274.128C986.271 273.915 986.522 273.621 986.703 273.248C986.884 272.875 986.975 272.453 986.975 271.984C986.975 271.504 986.884 271.083 986.703 270.72C986.522 270.347 986.271 270.053 985.951 269.84C985.631 269.627 985.263 269.52 984.847 269.52C984.431 269.52 984.063 269.627 983.743 269.84C983.423 270.053 983.172 270.347 982.991 270.72C982.81 271.083 982.719 271.504 982.719 271.984C982.719 272.453 982.81 272.875 982.991 273.248C983.172 273.621 983.423 273.915 983.743 274.128C984.063 274.341 984.431 274.448 984.847 274.448ZM994.377 276.16C993.619 276.16 992.915 276.064 992.265 275.872C991.614 275.669 991.059 275.376 990.601 274.992L991.577 273.68C992.142 274.032 992.638 274.277 993.065 274.416C993.502 274.555 993.939 274.624 994.377 274.624C994.942 274.624 995.385 274.539 995.705 274.368C996.035 274.197 996.201 273.968 996.201 273.68C996.201 273.445 996.105 273.269 995.913 273.152C995.721 273.024 995.47 272.928 995.161 272.864C994.851 272.8 994.51 272.741 994.137 272.688C993.763 272.635 993.385 272.565 993.001 272.48C992.627 272.384 992.286 272.256 991.977 272.096C991.667 271.925 991.417 271.701 991.225 271.424C991.033 271.136 990.937 270.763 990.937 270.304C990.937 269.771 991.075 269.317 991.353 268.944C991.641 268.571 992.041 268.283 992.553 268.08C993.075 267.877 993.673 267.776 994.345 267.776C994.963 267.776 995.571 267.861 996.169 268.032C996.777 268.192 997.347 268.459 997.881 268.832L996.905 270.112C996.478 269.824 996.046 269.616 995.609 269.488C995.171 269.36 994.734 269.296 994.297 269.296C993.806 269.296 993.422 269.376 993.145 269.536C992.867 269.685 992.729 269.888 992.729 270.144C992.729 270.368 992.819 270.539 993.001 270.656C993.193 270.773 993.449 270.864 993.769 270.928C994.089 270.992 994.435 271.051 994.809 271.104C995.193 271.157 995.571 271.232 995.945 271.328C996.329 271.413 996.681 271.541 997.001 271.712C997.321 271.872 997.577 272.096 997.769 272.384C997.961 272.672 998.057 273.051 998.057 273.52C998.057 274.043 997.891 274.501 997.561 274.896C997.241 275.291 996.803 275.6 996.249 275.824C995.694 276.048 995.07 276.16 994.377 276.16ZM1005.49 276.16C1004.45 276.16 1003.66 275.931 1003.12 275.472C1002.59 275.013 1002.32 274.336 1002.32 273.44V269.504H999.794V267.92H1002.32V265.696L1004.32 265.28V267.92H1007.65V269.504H1004.32V273.056C1004.32 273.557 1004.44 273.915 1004.67 274.128C1004.91 274.341 1005.28 274.448 1005.79 274.448C1006.06 274.448 1006.34 274.427 1006.63 274.384C1006.93 274.331 1007.27 274.245 1007.67 274.128V275.792C1007.34 275.899 1006.97 275.984 1006.58 276.048C1006.19 276.123 1005.83 276.16 1005.49 276.16ZM1019.19 276V264.8H1021.53L1023.24 269.024L1024.92 264.8H1027.25V276H1025.41V267.728L1023.21 273.024L1021 267.728V276H1019.19ZM1033.04 276.16C1032.24 276.16 1031.52 275.979 1030.88 275.616C1030.24 275.243 1029.73 274.741 1029.36 274.112C1028.99 273.472 1028.8 272.757 1028.8 271.968C1028.8 271.179 1028.98 270.469 1029.33 269.84C1029.69 269.211 1030.18 268.715 1030.78 268.352C1031.39 267.979 1032.08 267.792 1032.85 267.792C1033.64 267.792 1034.34 267.973 1034.94 268.336C1035.56 268.699 1036.04 269.195 1036.38 269.824C1036.74 270.453 1036.91 271.173 1036.91 271.984V272.464H1030.77C1030.84 272.869 1030.99 273.227 1031.2 273.536C1031.41 273.845 1031.68 274.085 1032.02 274.256C1032.36 274.427 1032.73 274.512 1033.14 274.512C1033.54 274.512 1033.91 274.437 1034.26 274.288C1034.6 274.139 1034.88 273.925 1035.12 273.648L1036.43 274.816C1035.95 275.285 1035.43 275.627 1034.88 275.84C1034.32 276.053 1033.71 276.16 1033.04 276.16ZM1030.8 271.248H1035.01C1034.94 270.864 1034.81 270.539 1034.61 270.272C1034.42 269.995 1034.17 269.781 1033.87 269.632C1033.58 269.483 1033.25 269.408 1032.88 269.408C1032.54 269.408 1032.22 269.483 1031.92 269.632C1031.63 269.781 1031.39 269.995 1031.2 270.272C1031.01 270.539 1030.87 270.864 1030.8 271.248ZM1042.35 276.16C1041.59 276.16 1040.88 276.064 1040.23 275.872C1039.58 275.669 1039.03 275.376 1038.57 274.992L1039.55 273.68C1040.11 274.032 1040.61 274.277 1041.03 274.416C1041.47 274.555 1041.91 274.624 1042.35 274.624C1042.91 274.624 1043.35 274.539 1043.67 274.368C1044 274.197 1044.17 273.968 1044.17 273.68C1044.17 273.445 1044.07 273.269 1043.88 273.152C1043.69 273.024 1043.44 272.928 1043.13 272.864C1042.82 272.8 1042.48 272.741 1042.11 272.688C1041.73 272.635 1041.35 272.565 1040.97 272.48C1040.6 272.384 1040.25 272.256 1039.95 272.096C1039.64 271.925 1039.39 271.701 1039.19 271.424C1039 271.136 1038.91 270.763 1038.91 270.304C1038.91 269.771 1039.04 269.317 1039.32 268.944C1039.61 268.571 1040.01 268.283 1040.52 268.08C1041.04 267.877 1041.64 267.776 1042.31 267.776C1042.93 267.776 1043.54 267.861 1044.14 268.032C1044.75 268.192 1045.32 268.459 1045.85 268.832L1044.87 270.112C1044.45 269.824 1044.01 269.616 1043.58 269.488C1043.14 269.36 1042.7 269.296 1042.27 269.296C1041.77 269.296 1041.39 269.376 1041.11 269.536C1040.84 269.685 1040.7 269.888 1040.7 270.144C1040.7 270.368 1040.79 270.539 1040.97 270.656C1041.16 270.773 1041.42 270.864 1041.74 270.928C1042.06 270.992 1042.4 271.051 1042.78 271.104C1043.16 271.157 1043.54 271.232 1043.91 271.328C1044.3 271.413 1044.65 271.541 1044.97 271.712C1045.29 271.872 1045.55 272.096 1045.74 272.384C1045.93 272.672 1046.03 273.051 1046.03 273.52C1046.03 274.043 1045.86 274.501 1045.53 274.896C1045.21 275.291 1044.77 275.6 1044.22 275.824C1043.66 276.048 1043.04 276.16 1042.35 276.16ZM1051.94 276.16C1051.18 276.16 1050.48 276.064 1049.83 275.872C1049.18 275.669 1048.62 275.376 1048.16 274.992L1049.14 273.68C1049.7 274.032 1050.2 274.277 1050.63 274.416C1051.06 274.555 1051.5 274.624 1051.94 274.624C1052.5 274.624 1052.95 274.539 1053.27 274.368C1053.6 274.197 1053.76 273.968 1053.76 273.68C1053.76 273.445 1053.67 273.269 1053.48 273.152C1053.28 273.024 1053.03 272.928 1052.72 272.864C1052.41 272.8 1052.07 272.741 1051.7 272.688C1051.33 272.635 1050.95 272.565 1050.56 272.48C1050.19 272.384 1049.85 272.256 1049.54 272.096C1049.23 271.925 1048.98 271.701 1048.79 271.424C1048.6 271.136 1048.5 270.763 1048.5 270.304C1048.5 269.771 1048.64 269.317 1048.92 268.944C1049.2 268.571 1049.6 268.283 1050.12 268.08C1050.64 267.877 1051.24 267.776 1051.91 267.776C1052.53 267.776 1053.13 267.861 1053.73 268.032C1054.34 268.192 1054.91 268.459 1055.44 268.832L1054.47 270.112C1054.04 269.824 1053.61 269.616 1053.17 269.488C1052.73 269.36 1052.3 269.296 1051.86 269.296C1051.37 269.296 1050.98 269.376 1050.71 269.536C1050.43 269.685 1050.29 269.888 1050.29 270.144C1050.29 270.368 1050.38 270.539 1050.56 270.656C1050.76 270.773 1051.01 270.864 1051.33 270.928C1051.65 270.992 1052 271.051 1052.37 271.104C1052.76 271.157 1053.13 271.232 1053.51 271.328C1053.89 271.413 1054.24 271.541 1054.56 271.712C1054.88 271.872 1055.14 272.096 1055.33 272.384C1055.52 272.672 1055.62 273.051 1055.62 273.52C1055.62 274.043 1055.45 274.501 1055.12 274.896C1054.8 275.291 1054.37 275.6 1053.81 275.824C1053.26 276.048 1052.63 276.16 1051.94 276.16ZM1060.6 276.144C1060.04 276.144 1059.54 276.043 1059.1 275.84C1058.66 275.627 1058.32 275.339 1058.08 274.976C1057.84 274.603 1057.72 274.176 1057.72 273.696C1057.72 273.195 1057.85 272.768 1058.11 272.416C1058.36 272.064 1058.73 271.792 1059.2 271.6C1059.67 271.408 1060.22 271.312 1060.86 271.312C1061.22 271.312 1061.58 271.349 1061.93 271.424C1062.28 271.499 1062.64 271.627 1063 271.808V271.024C1063 270.501 1062.85 270.112 1062.54 269.856C1062.24 269.589 1061.79 269.456 1061.18 269.456C1060.83 269.456 1060.46 269.509 1060.08 269.616C1059.69 269.723 1059.26 269.893 1058.78 270.128L1058.03 268.672C1058.67 268.363 1059.28 268.139 1059.85 268C1060.44 267.861 1061.02 267.792 1061.58 267.792C1062.66 267.792 1063.5 268.059 1064.09 268.592C1064.69 269.115 1064.99 269.861 1064.99 270.832V276H1063V275.168C1062.64 275.509 1062.26 275.76 1061.87 275.92C1061.48 276.069 1061.06 276.144 1060.6 276.144ZM1059.6 273.648C1059.6 273.989 1059.74 274.261 1060.01 274.464C1060.3 274.667 1060.68 274.768 1061.16 274.768C1061.52 274.768 1061.84 274.715 1062.14 274.608C1062.45 274.501 1062.74 274.336 1063 274.112V272.928C1062.73 272.8 1062.44 272.709 1062.14 272.656C1061.85 272.603 1061.55 272.576 1061.23 272.576C1060.73 272.576 1060.33 272.672 1060.03 272.864C1059.74 273.056 1059.6 273.317 1059.6 273.648ZM1071.06 279.504C1070.48 279.504 1069.9 279.435 1069.33 279.296C1068.78 279.168 1068.26 278.981 1067.78 278.736L1068.47 277.264C1068.94 277.488 1069.38 277.653 1069.78 277.76C1070.19 277.877 1070.59 277.936 1070.98 277.936C1072.22 277.936 1072.84 277.365 1072.84 276.224V275.056C1072.56 275.376 1072.23 275.627 1071.83 275.808C1071.44 275.979 1071.01 276.064 1070.57 276.064C1069.92 276.064 1069.32 275.883 1068.79 275.52C1068.26 275.147 1067.83 274.651 1067.51 274.032C1067.2 273.403 1067.05 272.709 1067.05 271.952C1067.05 271.184 1067.21 270.496 1067.53 269.888C1067.86 269.269 1068.3 268.779 1068.85 268.416C1069.41 268.043 1070.03 267.856 1070.71 267.856C1071.13 267.856 1071.52 267.941 1071.88 268.112C1072.25 268.272 1072.58 268.507 1072.85 268.816V267.92H1074.84V276.224C1074.84 277.28 1074.51 278.091 1073.86 278.656C1073.22 279.221 1072.29 279.504 1071.06 279.504ZM1071.16 274.432C1071.5 274.432 1071.81 274.368 1072.09 274.24C1072.37 274.101 1072.63 273.915 1072.84 273.68V270.24C1072.63 269.995 1072.37 269.808 1072.07 269.68C1071.78 269.552 1071.48 269.488 1071.16 269.488C1070.73 269.488 1070.36 269.595 1070.04 269.808C1069.72 270.021 1069.47 270.315 1069.29 270.688C1069.11 271.061 1069.01 271.488 1069.01 271.968C1069.01 272.437 1069.11 272.859 1069.29 273.232C1069.48 273.605 1069.73 273.899 1070.04 274.112C1070.36 274.325 1070.73 274.432 1071.16 274.432ZM1081.01 276.16C1080.21 276.16 1079.49 275.979 1078.85 275.616C1078.21 275.243 1077.7 274.741 1077.33 274.112C1076.96 273.472 1076.77 272.757 1076.77 271.968C1076.77 271.179 1076.94 270.469 1077.3 269.84C1077.66 269.211 1078.14 268.715 1078.75 268.352C1079.36 267.979 1080.05 267.792 1080.82 267.792C1081.61 267.792 1082.3 267.973 1082.91 268.336C1083.53 268.699 1084.01 269.195 1084.35 269.824C1084.7 270.453 1084.88 271.173 1084.88 271.984V272.464H1078.74C1078.81 272.869 1078.96 273.227 1079.17 273.536C1079.38 273.845 1079.65 274.085 1079.98 274.256C1080.33 274.427 1080.7 274.512 1081.1 274.512C1081.51 274.512 1081.88 274.437 1082.22 274.288C1082.57 274.139 1082.85 273.925 1083.09 273.648L1084.4 274.816C1083.92 275.285 1083.4 275.627 1082.85 275.84C1082.29 276.053 1081.68 276.16 1081.01 276.16ZM1078.77 271.248H1082.98C1082.91 270.864 1082.78 270.539 1082.58 270.272C1082.38 269.995 1082.14 269.781 1081.84 269.632C1081.55 269.483 1081.22 269.408 1080.85 269.408C1080.51 269.408 1080.19 269.483 1079.89 269.632C1079.6 269.781 1079.36 269.995 1079.17 270.272C1078.98 270.539 1078.84 270.864 1078.77 271.248ZM1098.92 276V266.608H1095.51V264.8H1104.44V266.608H1101.04V276H1098.92ZM1109.57 276.16C1108.8 276.16 1108.1 275.979 1107.49 275.616C1106.87 275.243 1106.38 274.741 1106.01 274.112C1105.65 273.472 1105.47 272.757 1105.47 271.968C1105.47 271.189 1105.65 270.485 1106.01 269.856C1106.38 269.216 1106.87 268.715 1107.49 268.352C1108.1 267.979 1108.8 267.792 1109.57 267.792C1110.34 267.792 1111.04 267.979 1111.65 268.352C1112.26 268.715 1112.75 269.216 1113.12 269.856C1113.48 270.485 1113.66 271.189 1113.66 271.968C1113.66 272.757 1113.48 273.472 1113.12 274.112C1112.75 274.741 1112.26 275.243 1111.65 275.616C1111.04 275.979 1110.34 276.16 1109.57 276.16ZM1109.57 274.448C1109.98 274.448 1110.35 274.341 1110.67 274.128C1110.99 273.915 1111.24 273.621 1111.42 273.248C1111.6 272.875 1111.69 272.453 1111.69 271.984C1111.69 271.504 1111.6 271.083 1111.42 270.72C1111.24 270.347 1110.99 270.053 1110.67 269.84C1110.35 269.627 1109.98 269.52 1109.57 269.52C1109.15 269.52 1108.78 269.627 1108.46 269.84C1108.14 270.053 1107.89 270.347 1107.71 270.72C1107.53 271.083 1107.44 271.504 1107.44 271.984C1107.44 272.453 1107.53 272.875 1107.71 273.248C1107.89 273.621 1108.14 273.915 1108.46 274.128C1108.78 274.341 1109.15 274.448 1109.57 274.448ZM1119.16 276.16C1118.39 276.16 1117.7 275.979 1117.08 275.616C1116.46 275.243 1115.97 274.741 1115.61 274.112C1115.24 273.472 1115.06 272.757 1115.06 271.968C1115.06 271.189 1115.24 270.485 1115.61 269.856C1115.97 269.216 1116.46 268.715 1117.08 268.352C1117.7 267.979 1118.39 267.792 1119.16 267.792C1119.94 267.792 1120.63 267.979 1121.24 268.352C1121.86 268.715 1122.35 269.216 1122.71 269.856C1123.07 270.485 1123.26 271.189 1123.26 271.968C1123.26 272.757 1123.07 273.472 1122.71 274.112C1122.35 274.741 1121.86 275.243 1121.24 275.616C1120.63 275.979 1119.94 276.16 1119.16 276.16ZM1119.16 274.448C1119.58 274.448 1119.94 274.341 1120.26 274.128C1120.58 273.915 1120.83 273.621 1121.02 273.248C1121.2 272.875 1121.29 272.453 1121.29 271.984C1121.29 271.504 1121.2 271.083 1121.02 270.72C1120.83 270.347 1120.58 270.053 1120.26 269.84C1119.94 269.627 1119.58 269.52 1119.16 269.52C1118.74 269.52 1118.38 269.627 1118.06 269.84C1117.74 270.053 1117.48 270.347 1117.3 270.72C1117.12 271.083 1117.03 271.504 1117.03 271.984C1117.03 272.453 1117.12 272.875 1117.3 273.248C1117.48 273.621 1117.74 273.915 1118.06 274.128C1118.38 274.341 1118.74 274.448 1119.16 274.448ZM1130.66 276.16C1129.64 276.16 1128.88 275.92 1128.35 275.44C1127.83 274.96 1127.57 274.251 1127.57 273.312V265.952H1124.71V264.368H1129.59V273.104C1129.59 273.573 1129.7 273.915 1129.92 274.128C1130.15 274.341 1130.5 274.448 1130.98 274.448C1131.23 274.448 1131.48 274.427 1131.73 274.384C1131.97 274.331 1132.25 274.24 1132.55 274.112V275.792C1132.32 275.888 1132.03 275.973 1131.68 276.048C1131.33 276.123 1130.99 276.16 1130.66 276.16Z" fill="#080808"/>
<path d="M1053 250.5L1053 251.5L1051 251.5L1051 250.5L1052 250.5L1053 250.5ZM391.707 328.707C391.317 329.098 390.683 329.098 390.293 328.707L383.929 322.343C383.538 321.953 383.538 321.319 383.929 320.929C384.319 320.538 384.953 320.538 385.343 320.929L391 326.586L396.657 320.929C397.047 320.538 397.681 320.538 398.071 320.929C398.462 321.319 398.462 321.953 398.071 322.343L391.707 328.707ZM1052 250.5L1051 250.5L1051 222L1052 222L1053 222L1053 250.5L1052 250.5ZM1044 214L1044 215L399 215L399 214L399 213L1044 213L1044 214ZM391 222L392 222L392 328L391 328L390 328L390 222L391 222ZM399 214L399 215C395.134 215 392 218.134 392 222L391 222L390 222C390 217.029 394.029 213 399 213L399 214ZM1052 222L1051 222C1051 218.134 1047.87 215 1044 215L1044 214L1044 213C1048.97 213 1053 217.029 1053 222L1052 222Z" fill="white"/>
<path d="M922.707 348.707C923.098 348.317 923.098 347.683 922.707 347.293L916.343 340.929C915.953 340.538 915.319 340.538 914.929 340.929C914.538 341.319 914.538 341.953 914.929 342.343L920.586 348L914.929 353.657C914.538 354.047 914.538 354.681 914.929 355.071C915.319 355.462 915.953 355.462 916.343 355.071L922.707 348.707ZM922 348V347H866V348V349H922V348Z" fill="white"/>
<path d="M922.707 411.707C923.098 411.317 923.098 410.683 922.707 410.293L916.343 403.929C915.953 403.538 915.319 403.538 914.929 403.929C914.538 404.319 914.538 404.953 914.929 405.343L920.586 411L914.929 416.657C914.538 417.047 914.538 417.681 914.929 418.071C915.319 418.462 915.953 418.462 916.343 418.071L922.707 411.707ZM922 411V410H866V411V412H922V411Z" fill="white"/>
<path d="M1052.71 289.293C1052.32 288.902 1051.68 288.902 1051.29 289.293L1044.93 295.657C1044.54 296.047 1044.54 296.681 1044.93 297.071C1045.32 297.462 1045.95 297.462 1046.34 297.071L1052 291.414L1057.66 297.071C1058.05 297.462 1058.68 297.462 1059.07 297.071C1059.46 296.681 1059.46 296.047 1059.07 295.657L1052.71 289.293ZM1052 290L1051 290L1051 328L1052 328L1053 328L1053 290L1052 290Z" fill="white"/>
<path d="M258 336C258 331.582 261.582 328 266 328H510C514.418 328 518 331.582 518 336V410C518 414.418 514.418 418 510 418H266C261.582 418 258 414.418 258 410V336Z" fill="white"/>
<path d="M346.156 378.5V367.3H353.612V369.108H348.3V371.972H351.708V373.732H348.3V376.692H353.676V378.5H346.156ZM358.23 378.5L354.886 370.42H357.062L359.27 376.132L361.462 370.42H363.558L360.198 378.5H358.23ZM369.04 378.66C368.24 378.66 367.52 378.479 366.88 378.116C366.24 377.743 365.733 377.241 365.36 376.612C364.986 375.972 364.8 375.257 364.8 374.468C364.8 373.679 364.976 372.969 365.328 372.34C365.69 371.711 366.176 371.215 366.784 370.852C367.392 370.479 368.08 370.292 368.848 370.292C369.637 370.292 370.336 370.473 370.944 370.836C371.562 371.199 372.042 371.695 372.384 372.324C372.736 372.953 372.912 373.673 372.912 374.484V374.964H366.768C366.842 375.369 366.986 375.727 367.2 376.036C367.413 376.345 367.685 376.585 368.016 376.756C368.357 376.927 368.73 377.012 369.136 377.012C369.541 377.012 369.914 376.937 370.256 376.788C370.597 376.639 370.885 376.425 371.12 376.148L372.432 377.316C371.952 377.785 371.434 378.127 370.88 378.34C370.325 378.553 369.712 378.66 369.04 378.66ZM366.8 373.748H371.008C370.944 373.364 370.81 373.039 370.608 372.772C370.416 372.495 370.17 372.281 369.872 372.132C369.584 371.983 369.253 371.908 368.88 371.908C368.538 371.908 368.218 371.983 367.92 372.132C367.632 372.281 367.392 372.495 367.2 372.772C367.008 373.039 366.874 373.364 366.8 373.748ZM374.809 378.5V370.42H376.825V371.604C377.444 370.729 378.265 370.292 379.289 370.292C379.833 370.292 380.313 370.415 380.729 370.66C381.145 370.895 381.471 371.225 381.705 371.652C381.94 372.079 382.057 372.575 382.057 373.14V378.5H380.057V373.716C380.057 373.161 379.903 372.724 379.593 372.404C379.295 372.073 378.889 371.908 378.377 371.908C378.068 371.908 377.78 371.972 377.513 372.1C377.257 372.228 377.028 372.42 376.825 372.676V378.5H374.809ZM389.459 378.66C388.414 378.66 387.624 378.431 387.091 377.972C386.558 377.513 386.291 376.836 386.291 375.94V372.004H383.763V370.42H386.291V368.196L388.291 367.78V370.42H391.619V372.004H388.291V375.556C388.291 376.057 388.408 376.415 388.643 376.628C388.878 376.841 389.251 376.948 389.763 376.948C390.03 376.948 390.307 376.927 390.595 376.884C390.894 376.831 391.24 376.745 391.635 376.628V378.292C391.304 378.399 390.942 378.484 390.547 378.548C390.163 378.623 389.8 378.66 389.459 378.66ZM403.687 378.5V367.3H407.447C408.151 367.3 408.769 367.428 409.303 367.684C409.847 367.929 410.268 368.276 410.567 368.724C410.876 369.172 411.031 369.689 411.031 370.276C411.031 370.831 410.865 371.327 410.535 371.764C410.215 372.191 409.783 372.516 409.239 372.74C409.9 372.953 410.423 373.289 410.807 373.748C411.201 374.207 411.399 374.751 411.399 375.38C411.399 375.988 411.239 376.532 410.919 377.012C410.609 377.481 410.172 377.849 409.607 378.116C409.052 378.372 408.407 378.5 407.671 378.5H403.687ZM405.783 371.972H407.223C407.735 371.972 408.145 371.839 408.455 371.572C408.764 371.295 408.919 370.932 408.919 370.484C408.919 370.036 408.764 369.679 408.455 369.412C408.156 369.135 407.745 368.996 407.223 368.996H405.783V371.972ZM405.783 376.804H407.415C407.98 376.804 408.428 376.66 408.759 376.372C409.089 376.073 409.255 375.679 409.255 375.188C409.255 374.687 409.089 374.292 408.759 374.004C408.428 373.716 407.98 373.572 407.415 373.572H405.783V376.804ZM415.904 378.628C415.36 378.628 414.88 378.511 414.464 378.276C414.048 378.031 413.723 377.695 413.488 377.268C413.254 376.831 413.136 376.335 413.136 375.78V370.42H415.152V375.204C415.152 375.748 415.302 376.191 415.6 376.532C415.899 376.863 416.304 377.028 416.816 377.028C417.136 377.028 417.424 376.964 417.68 376.836C417.936 376.697 418.166 376.5 418.368 376.244V370.42H420.384V378.5H418.368V377.316C417.75 378.191 416.928 378.628 415.904 378.628ZM426.314 378.66C425.557 378.66 424.853 378.564 424.202 378.372C423.551 378.169 422.997 377.876 422.538 377.492L423.514 376.18C424.079 376.532 424.575 376.777 425.002 376.916C425.439 377.055 425.877 377.124 426.314 377.124C426.879 377.124 427.322 377.039 427.642 376.868C427.973 376.697 428.138 376.468 428.138 376.18C428.138 375.945 428.042 375.769 427.85 375.652C427.658 375.524 427.407 375.428 427.098 375.364C426.789 375.3 426.447 375.241 426.074 375.188C425.701 375.135 425.322 375.065 424.938 374.98C424.565 374.884 424.223 374.756 423.914 374.596C423.605 374.425 423.354 374.201 423.162 373.924C422.97 373.636 422.874 373.263 422.874 372.804C422.874 372.271 423.013 371.817 423.29 371.444C423.578 371.071 423.978 370.783 424.49 370.58C425.013 370.377 425.61 370.276 426.282 370.276C426.901 370.276 427.509 370.361 428.106 370.532C428.714 370.692 429.285 370.959 429.818 371.332L428.842 372.612C428.415 372.324 427.983 372.116 427.546 371.988C427.109 371.86 426.671 371.796 426.234 371.796C425.743 371.796 425.359 371.876 425.082 372.036C424.805 372.185 424.666 372.388 424.666 372.644C424.666 372.868 424.757 373.039 424.938 373.156C425.13 373.273 425.386 373.364 425.706 373.428C426.026 373.492 426.373 373.551 426.746 373.604C427.13 373.657 427.509 373.732 427.882 373.828C428.266 373.913 428.618 374.041 428.938 374.212C429.258 374.372 429.514 374.596 429.706 374.884C429.898 375.172 429.994 375.551 429.994 376.02C429.994 376.543 429.829 377.001 429.498 377.396C429.178 377.791 428.741 378.1 428.186 378.324C427.631 378.548 427.007 378.66 426.314 378.66Z" fill="#080808"/>
<path d="M590.707 347.293C591.098 347.683 591.098 348.317 590.707 348.707L584.343 355.071C583.953 355.462 583.319 355.462 582.929 355.071C582.538 354.681 582.538 354.047 582.929 353.657L588.586 348L582.929 342.343C582.538 341.953 582.538 341.319 582.929 340.929C583.319 340.538 583.953 340.538 584.343 340.929L590.707 347.293ZM518 377V376H532.345V377V378H518V377ZM540.345 369H539.345V356H540.345H541.345V369H540.345ZM548.345 348V347H590V348V349H548.345V348ZM540.345 356H539.345C539.345 351.029 543.374 347 548.345 347V348V349C544.479 349 541.345 352.134 541.345 356H540.345ZM532.345 377V376C536.211 376 539.345 372.866 539.345 369H540.345H541.345C541.345 373.971 537.315 378 532.345 378V377Z" fill="white"/>
<path d="M849.293 473.293C848.902 473.683 848.902 474.317 849.293 474.707L855.657 481.071C856.047 481.462 856.681 481.462 857.071 481.071C857.462 480.681 857.462 480.047 857.071 479.657L851.414 474L857.071 468.343C857.462 467.953 857.462 467.319 857.071 466.929C856.681 466.538 856.047 466.538 855.657 466.929L849.293 473.293ZM1052 430L1051 430L1051 466L1052 466L1053 466L1053 430L1052 430ZM1044 474L1044 473L850 473L850 474L850 475L1044 475L1044 474ZM1052 466L1051 466C1051 469.866 1047.87 473 1044 473L1044 474L1044 475C1048.97 475 1053 470.971 1053 466L1052 466Z" fill="white"/>
</g>
<defs>
<clipPath id="clip0_232_205">
<rect width="1440" height="720" fill="white"/>
</clipPath>
</defs>
</svg>
